<svg id="Layer_1" data-name="Layer 1" xmlns="http://www.w3.org/2000/svg" xmlns:xlink="http://www.w3.org/1999/xlink" viewBox="0 0 663.29 566.94"><defs><style>.cls-1{fill:none;}.cls-2{clip-path:url(#clip-path);}.cls-3{fill:#553395;}.cls-4{fill:#1a1a1a;}.cls-5{fill:#fff;}.cls-6{fill:#6265a7;}.cls-7{fill:#36344b;}.cls-8{fill:#4c5198;}</style><clipPath id="clip-path" transform="translate(-89.51 -15.22)"><rect class="cls-1" x="89.5" y="386.41" width="395.44" height="195.74"/></clipPath></defs><title>DARS</title><g class="cls-2"><path class="cls-3" d="M480.54,577s-224.28,1.09-238.27,3.07c-42.59-9.21-63.44-25.5-86.32-53.26l-.14,3.55a1.4,1.4,0,0,1-2.24,1l-9.72-7.36.9-7.37c-25.39-10-33.36-18-50.64-29-2.52-1.57-2-10.37.62-10.37L311.8,453.8,481.58,571.45C483.75,572.74,483,577,480.54,577Z" transform="translate(-89.51 -15.22)"/><path class="cls-4" d="M242.21,582.16l-.34-.06c-42-9-62.75-24.76-84.37-50.19a3.29,3.29,0,0,1-1.61,1.49,3.46,3.46,0,0,1-3.63-.41l-10.64-8,.91-7c-18.25-7.3-27.36-13.58-37.91-20.81-3.58-2.45-7.35-5-11.61-7.77-2.87-1.77-3-7.36-2-10.51s2.81-3.54,3.72-3.62l217.76-23.6,170.4,118.13a5.42,5.42,0,0,1,1.95,6.07,4.4,4.4,0,0,1-4.12,3.27c-2.8,0-224.27,1.16-238,3.07Zm-88.07-60.85,3.49,4.23c22.17,26.87,42.25,43.24,84.79,52.45,17.13-1.91,227.91-3,238-3a1.75,1.75,0,0,0,.28-1.09,1.29,1.29,0,0,0-.28-.82l-.06-.06L311.25,455.86l-216,23.46a8,8,0,0,0-.62,3.82,4.92,4.92,0,0,0,.7,2.87c4.34,2.79,8.11,5.39,11.75,7.85,10.56,7.3,19.72,13.57,38.54,20.94l1.47.61-1,7.77,7.69,5.81Z" transform="translate(-89.51 -15.22)"/><path class="cls-5" d="M183.1,454.82l-81.15.75a30.09,30.09,0,0,0,17.35,15.82c10.63,3.9,31.47-2.52,34.84,20.06,22.31,5.59,53.31-16,53.31-16Z" transform="translate(-89.51 -15.22)"/><path class="cls-4" d="M161.83,494.44a33.08,33.08,0,0,1-8.26-1l-1.33-.34-.2-1.36c-2.17-14.86-12.1-15.68-22.67-16.57a46.51,46.51,0,0,1-10.84-1.77,32,32,0,0,1-18.61-17.05l-1-2.73,84.92-.83,26.93,22.85-2.16,1.5c-1.05.83-25.19,17.46-46.73,17.32ZM156,489.81c17.63,3.48,40.78-10,48-14.52l-21.68-18.35-76.95.75A28.58,28.58,0,0,0,120,469.56c2.59,1,6.08,1.22,9.73,1.57C140.07,471.94,152.88,473,156,489.81Z" transform="translate(-89.51 -15.22)"/><path class="cls-5" d="M456.76,527.05c-47.78.61-146.84.83-214-1.91-7.69,1.71-.42,42-.42,42l223.85.27c-9.66-15.08-9.1-40.31-9.44-40.31Z" transform="translate(-89.51 -15.22)"/><path class="cls-4" d="M240.67,569.19l-.28-1.71c0-.06-1.81-10.29-2.72-20.52-1.68-19.78,1.67-23.13,4.68-23.8l.28-.06h.28c69.12,2.79,170.14,2.45,213.85,1.9,2.1,0,2.16,1.71,2.24,3.76.77,16.77,3.85,29.4,9,37.51l2,3.14Zm2.51-41.94c-.48.41-2.72,3.27-1.33,19.37.63,7.64,1.82,15.21,2.38,18.48l218.47.28c-6.72-12.82-7.56-30-7.84-36.22-44.69.55-143.47.82-211.68-1.91Z" transform="translate(-89.51 -15.22)"/><path class="cls-5" d="M153.51,484s-3.85-42.28-28.89-61.59C161,424,312.1,423.72,312.1,423.72l-7.35,42.22Z" transform="translate(-89.51 -15.22)"/><path class="cls-4" d="M151.62,486.26l-.21-2.11c-.06-.41-4.12-41.67-28.12-60.15l-5.11-4,6.51.28c35.89,1.63,185.86,1.36,187.33,1.36h2.52l-8,46.11Zm-21.26-61.65c18.81,18.21,23.92,48.69,25,57L302.93,464l6.65-38.32C290.76,425.77,171.07,425.91,130.36,424.61Z" transform="translate(-89.51 -15.22)"/><path class="cls-5" d="M322,492s11.69-64,5-102.3l-173.49-1.22s19.52,80,3.07,99.78a.66.66,0,0,0,.56,1.09C265.22,487.55,322,492,322,492Z" transform="translate(-89.51 -15.22)"/><path class="cls-4" d="M323.77,494.17l-1.89-.14c-.57-.06-57.92-4.43-164.67-2.59a2.85,2.85,0,0,1-2.59-1.5A2.69,2.69,0,0,1,155,487c15.6-18.82-3.29-97.26-3.5-98.08l-.62-2.52,177.89,1.3.28,1.71c6.72,38.12-4.48,100.32-5,103Zm-96.53-7.23c53.51.41,85.2,2.32,93,2.87,1.81-10.5,10.27-64,5-98.07l-169.08-1.16c3.15,13.57,16.43,75.63,3.71,96.77,25.25-.47,47.78-.54,67.37-.41Z" transform="translate(-89.51 -15.22)"/><path class="cls-5" d="M164.7,483.4l191.53,4.7s49.94-19.78,50.23-61.17c-70.86-1.64-207.42-1.5-207.42-1.5s-7,40.85-34.34,58Z" transform="translate(-89.51 -15.22)"/><path class="cls-4" d="M356.58,490.21h-.43l-198.31-4.9,5.73-3.62c26.23-16.51,33.37-56.2,33.43-56.61l.28-1.71H199c1.39,0,137.31-.13,207.48,1.5l2.1.06V427c-.14,17.53-9.09,34-26,47.67a108.35,108.35,0,0,1-25.54,15.41Zm-185.65-8.66,184.89,4.57c4.54-1.91,46.73-20.8,48.47-57.16-66.25-1.49-187.54-1.43-203.49-1.43-1.54,7.51-9,37.25-29.87,54Z" transform="translate(-89.51 -15.22)"/><path class="cls-5" d="M454.24,528.27a.67.67,0,0,0,.2-1.29c-3.29-1.3-11.54-4.85-31.83-14.47-32-15.21-49.46-29-80.93-27.21-37.29-.28-152.57-4-171-4.57a.67.67,0,0,0-.42,1.22c10.5,6.69,57.37,36.42,71,43.52,10,5.26,190.14,5.4,213,2.8Z" transform="translate(-89.51 -15.22)"/><path class="cls-4" d="M343.63,531.89h-.7c-35.61-.27-96.19-1.22-102.63-4.56-13.85-7.23-61.69-37.58-71.21-43.66a2.65,2.65,0,0,1-1.12-3.13,2.8,2.8,0,0,1,2.73-1.91c22,.75,133.9,4.29,170.82,4.57,25.4-1.44,42.19,7.16,63.45,18.14,5.81,3,11.75,6.07,18.47,9.28,19.8,9.41,28.2,13,31.69,14.46a2.68,2.68,0,0,1-.69,5.19c-11,1.27-59.59,2-110.81,1.62Zm-168-49c15,9.49,54.43,34.37,66.66,40.78,3,1.58,31.13,3.55,100.67,4.1h.71c44.83.33,87.59-.14,104.72-1.09-5-2.18-13.28-5.93-26.72-12.34-6.79-3.21-12.8-6.34-18.61-9.35-21.48-11-37-19-61.29-17.67h-.14c-34.7-.26-135.49-3.4-166-4.43Z" transform="translate(-89.51 -15.22)"/><path class="cls-5" d="M242.42,567.15c-11.9.61-40.36-8.86-56.67-24.15a66.27,66.27,0,0,1-6.92-7.5c-.43-.55-.85-1.09-1.19-1.63-10.84-14.81-20.29-17.94-25.54-18.29l2.1-24.14c20.29-26.67,43.93,17.39,88.63,34Z" transform="translate(-89.51 -15.22)"/><path class="cls-4" d="M241.23,569.19c-12.74-.06-40.64-9.48-56.95-24.68a73.26,73.26,0,0,1-7.13-7.71c-.42-.55-.84-1.09-1.25-1.64-10.56-14.46-19.59-17.12-24-17.46l-2.1-.13,2.3-26.81.35-.47c4.12-5.39,8.53-8.33,13.64-9.08,10.22-1.43,20.92,6.62,34.48,16.71,12.18,9.08,26,19.37,43,25.71l1.33.48-.42,44.95-2,.06A7.43,7.43,0,0,1,241.23,569.19Zm-86.95-55.38c6.3,1.09,15.18,5.45,25,18.89l1.19,1.58a59.18,59.18,0,0,0,6.64,7.22c15.18,14.19,40.86,23.13,53.17,23.54l.35-38.2c-16.94-6.61-30.57-16.77-42.6-25.71-12.8-9.54-22.87-17-31.41-15.88-3.78.54-7.21,2.79-10.49,6.95Z" transform="translate(-89.51 -15.22)"/><path class="cls-4" d="M235.29,567.76S217.1,565.58,185,555.83c-19.44-18.56-25-23.4-29.17-24.07.71.68.07-6.83.07-6.83l14,.06C169.8,525,198.28,557.26,235.29,567.76Z" transform="translate(-89.51 -15.22)"/><path class="cls-4" d="M239.06,569c-.77-.06-22.81-1.49-54.7-11.18l-.49-.13-.35-.34c-17.62-16.85-24.06-22.58-27.69-23.46a2.14,2.14,0,0,1-1.48-.69l-4.62-4.57,4.34.75c0-1.22-.14-2.87-.28-4.29l-.2-2.25,17.2.14.63.69c.28.33,28.46,31.92,64.43,42.15Zm-52.95-15c11.12,3.35,20.57,5.8,28.12,7.58-24.27-12.35-41.76-30.63-45.32-34.51L158.13,527c.06,1.43.14,2.46.14,3.34,4.55,1.76,11,7.57,27.84,23.65Z" transform="translate(-89.51 -15.22)"/><path class="cls-4" d="M158.62,527l-4.2,4.09-11.12-6.2L142,516.68s-39-20-49.45-29a87,87,0,0,0-.63-10.23l10.5-1.3.62,7.5s41.14,18.68,50.16,32.4c5.6,2.11,16.72,4.9,16.72,13.09C161.34,532.43,158.62,527,158.62,527Z" transform="translate(-89.51 -15.22)"/><path class="cls-4" d="M154.7,533.59l-13.43-7.5-1.33-8.19c-6.15-3.2-39.24-20.46-48.89-28.77l-.71-.61v-1c0-4.56-.62-9.95-.62-9.95l-.21-2.05,14.76-1.85.7,8.46c6.72,3.14,40.36,19.23,49.53,32.06a13.24,13.24,0,0,1,1.47.55c6,2.11,16,5.59,15.95,14.25v1.36l-1.34.55c-6,2.39-9.93,1-12.17-1Zm-9.52-10.1,8.88,5,5.17-5,1.26,2.53c.2.41,1.95,3.13,7.06,1.63-1-4.43-6.72-6.83-13-9-.76-.27-1.53-.55-2.16-.75l-.63-.27-.34-.55c-8.54-13-48.83-31.51-49.26-31.65L101,485l-.56-6.55-6.3.75c.14,1.84.42,4.7.42,7.5,11.13,8.93,47.92,28,48.33,28.16l.91.48Z" transform="translate(-89.51 -15.22)"/><path class="cls-5" d="M151.69,516c-18.05-10.78-30.78-22-49.6-32.39l-1.75-28c.7,0,2.24-.27,2.59.28,3,4.9,11,15.75,22,15a17.08,17.08,0,0,1,2.58.06c19.52,2.38,22.87,9.13,25.54,19.09A153.77,153.77,0,0,1,151.69,516Z" transform="translate(-89.51 -15.22)"/><path class="cls-4" d="M153.29,519.34l-2.72-1.64c-8.18-4.9-15.33-9.88-22.25-14.8-8.4-5.86-17-11.93-27.28-17.59l-1-.55-2-31.31h2.66c1-.06,3-.2,4,1.3,2.72,4.43,10.21,14.72,20.08,14a16.08,16.08,0,0,1,3,.07c20.91,2.52,24.62,10.5,27.27,20.6l.07.2v.2a152.4,152.4,0,0,1-1.48,26.33Zm-49.17-37a287.39,287.39,0,0,1,26.64,17.32c6.08,4.23,12.32,8.66,19.24,12.89a147.64,147.64,0,0,0,1.05-22.17c-2.52-9.34-5.45-15.13-23.72-17.39a12.1,12.1,0,0,0-2.24-.06c-10.56.74-18.47-8.05-22.45-13.64Z" transform="translate(-89.51 -15.22)"/></g><path class="cls-6" d="M480.8,153.42c0,.57,0,1.13-.06,1.69l-.12,1.67c-.09,1.11-.17,2.2-.25,3.3s-.26,2.18-.4,3.25-.26,2.18-.47,3.26c-.24,1.31-.49,2.63-.73,4s-.63,2.65-1,4-.76,2.7-1.19,4.07-.89,2.76-1.46,4.16c-2.44,6.31-4,12.14-6.77,18-.42,1.05-.92,2.14-1.41,3.18s-1,2-1.38,2.86a47.34,47.34,0,0,1-3.61,5.5c-1.37,1.73-2.7,3.49-4,5.25-.79,1.08-1.58,2.16-2.36,3.26s-1.61,2.14-2.41,3.22l-1.2,1.61-.31.41-.16.2-.2.26-.87,1L447,231.72l-.73.87-.76.82L444,235l-3,3.27c-2.05,2.13-4.08,4.27-6.14,6.41C432,242,429,239.32,426,236.43c-1.5-1.5-3-3-4.59-4.59L419,229.47c-.37-.4-.76-.79-1.14-1.18s-.56-.59-.82-.88c-5-5.32-10.16-9.28-15.22-14-1.82-1.59-3.9-3.37-5.35-4.72-3.43-3.19-6.26-7-9.55-10.36-4.05-4.11-8.29-8-12.49-12l-10.28-9.69c-4.15-3.95-8.31-8-12.72-12.73-5-5.32-10.15-9.28-15.2-14-1.82-1.6-3.91-3.38-5.36-4.73-3.43-3.2-6.25-7-9.55-10.37-2-2-4.09-4-6.19-6l-7.06-6.69-3.68-3.5c-1.23-1.16-2.46-2.31-3.6-3.46l-7-6.93c1.31-1.24,2.62-2.48,3.93-3.74.68-.62,1.34-1.25,2-1.88l2.08-1.86c1.4-1.25,2.84-2.5,4.31-3.77s3.13-2.44,4.75-3.66c2-1.57,3.13-2.31,4.46-3.33.65-.5,1.29-1,1.91-1.49L319.21,87c1.28-.94,2.5-2,3.81-2.86s2.62-1.81,4-2.7c1.91-1.24,4.06-2.68,5.69-3.6,3.89-2.15,8.24-3.43,12.4-5,5-2,10.19-3.94,15.45-5.52l3.27-1c1.09-.29,2.18-.55,3.26-.83,2.17-.58,4.36-1,6.56-1.41a85.5,85.5,0,0,1,17.2-1.43c7,.19,13.27-.1,20,.88,1.18.11,2.42.34,3.61.51a33.13,33.13,0,0,1,3.28.59c1.12.27,2.23.59,3.32,1s2.16.83,3.22,1.26c2.15.84,4.18,1.95,6.31,2.82a103.67,103.67,0,0,1,14.88,8l2.9,2,2.73,2.1,1.1.86.25.2,1.29,1.12,2.56,2.28A65.88,65.88,0,0,1,464.61,96c.85,1.23,1.68,2.52,2.47,3.87.45.76.89,1.5,1.34,2.22s.84,1.48,1.26,2.2.85,1.44,1.28,2.14.79,1.44,1.17,2.15.79,1.44,1.19,2.15.71,1.45,1.07,2.19.69,1.48,1,2.23.61,1.52.9,2.31c.22.53.44,1.09.67,1.64s.45,1.13.64,1.69c.38,1.12.74,2.2,1,3.11a23.37,23.37,0,0,1,.7,3.28c.17,1.12.38,2.23.44,3.35.17,2.24.34,4.46.48,6.68a119.37,119.37,0,0,1,.53,16.26Z" transform="translate(-89.51 -15.22)"/><path class="cls-7" d="M717.46,308.7l-1.18-.1c-.78-.08-1.56-.11-2.27-.25a23.21,23.21,0,0,1-3.77-.89c-.54-.19-1.06-.37-1.55-.56a13.48,13.48,0,0,1-1.39-.64,19,19,0,0,1-2.41-1.35,29.8,29.8,0,0,1-4.66-3.79c-.69-.73-1.48-1.42-2.18-2.29l-.08-.09c-1.74,4.57-3.43,8.85-4.85,11.77-2.5,5.07-5.75,9.82-8.23,14.87l-1.09,2c-6.28,11.72-9.47,24.76-14.58,37-4.1,9.84-7.68,15.31-11.48,22.61-1.55,3-3.15,6.29-4.82,10.34-3.1,7.49-7.94,23.4-11.35,30.74-2.38,5.11-5.52,9.9-7.93,15l-1,2c-6.06,11.78-9.11,24.8-14.11,37-4,9.84-7.59,15.31-11.38,22.58-.78,1.49-1.56,3.06-2.37,4.76s-2.29,4-3.14,6c-1.14,2.7-2.25,8.17-1.15,12a91.08,91.08,0,0,1-11.29,1.37c-7,.25-11.2-1.19-16.57-1.94-1.11-.16-2.25-.29-3.49-.37s-3-.67-4.45-.62a10.4,10.4,0,0,0-8.73,7.61c-1.42,5.59-2.38,9.26-1.73,15.35.28,2.67,3.12,8.49,4.09,10.17,1.5,2.56,4.21,2,6,1.3a12.29,12.29,0,0,1,4.52-.92c1.28,0,2.55,0,3.82,0,4.32-.1,8.57-.33,13-.46,5.31-.16,10.64-.47,15.94-.15,4.34.26,8.67,2.11,13,1.9,1.82-.09,4.34-.5,6.56-.77,6.37-.3,12.31-2.11,19-1.25a107.87,107.87,0,0,0,16.57.73c1.2,0,2.39-.06,3.58-.1,1.53-.05,3.42.71,5,.62,2.47-.13,4.16.35,6.51-3.24,2.63-4,4.29-12,3.16-18.56a20.26,20.26,0,0,0-2.92-7.73,14.87,14.87,0,0,0-1.46-1.89c-1.66-1.82-3.68-1-5.44-.62a5.77,5.77,0,0,1-2.15.14c-2-.38-4-.8-6.23-1.1a43.49,43.49,0,0,0-7.48-.43c-5.31.16-16.18,2.57-21.48,2.26a25.32,25.32,0,0,1-2.62-.32,22.77,22.77,0,0,0,.61-2.26,36.6,36.6,0,0,1,2.1-6.59l2.29-5.35c2.56-6.07,5-12.09,7.56-18.35,3.1-7.49,6.08-15,9.5-22.37,2.78-6,6.7-11.53,9.14-17.63,1-2.57,2.25-6.22,3.39-9.41,3.61-9,5.89-17.84,10.54-27,4.11-8.08,7.41-15.54,10.51-22.93,2.52-6.07,5-12,7.57-18.29,3.14-7.44,6.16-14.95,9.66-22.23,2.85-5.94,6.82-11.42,9.36-17.45,1.07-2.55,2.35-6.16,3.53-9.33,2.91-6.83,5-13.6,8.09-20.45h-.31c-.4,0-.8,0-1.2,0Z" transform="translate(-89.51 -15.22)"/><path class="cls-7" d="M700,254.25a10.61,10.61,0,0,1,1.28-1c.42-.31.83-.6,1.24-.87a10.5,10.5,0,0,1,1.21-.73l1.2-.62a29.32,29.32,0,0,1,5.7-2c1-.27,2-.5,3.17-.72-6.43-6.95-12.93-13.86-19.08-21-5.27-6.14-9.61-13.06-15.12-18.94-2.33-2.48-5.71-5.77-8.65-8.71-8.13-8.67-16.6-16-24.49-25.74-7-8.61-13.63-16.09-20.28-23.33l-16.53-17.82c-6.74-7.28-13.57-14.51-20-22-5.27-6.14-9.61-13.06-15.12-18.93-2.33-2.49-5.71-5.77-8.65-8.72-8.12-8.67-16.59-16-24.48-25.74L540,55.68l-.65-.78c-.16.46-.36.92-.54,1.4s-.41,1.17-.7,1.77a35.65,35.65,0,0,1-5.09,8.61,22.93,22.93,0,0,1-7.92,6.39,10.32,10.32,0,0,1-1,.42l1.39,1.36c5.39,5.32,10.75,10.66,14,14.42,4.49,5.23,8.35,11,12.79,16.23l1.72,2.16c10.13,12.61,22.73,23.13,33.74,35,8.88,9.56,13.31,16.11,19.58,23.93,2.58,3.21,5.47,6.63,9.1,10.57,6.74,7.29,21.7,21.15,28.15,28.67,4.49,5.23,8.35,11,12.79,16.22l1.72,2.17c10.13,12.61,22.74,23.12,33.75,35l1.61,1.75c0-.08.09-.17.14-.26a28.94,28.94,0,0,1,5.34-6.45Z" transform="translate(-89.51 -15.22)"/><path class="cls-7" d="M488.9,69c-.69-.73-1.47-1.42-2.19-2.29l-1.16-1.31c-.4-.46-.77-1-1.19-1.5a36,36,0,0,1-5.14-8.58c-.17-.42-.33-.85-.47-1.29-.47.54-.93,1.1-1.39,1.63-3.26,3.18-5.52,7-9.56,9.7a72.36,72.36,0,0,0-9.28,7.44c-.63.58-1.25,1.16-1.86,1.75-.8.76-2.21,1.23-3,2-1.25,1.24-2.4,1.77-1.82,4.89a9.41,9.41,0,0,0,.3,1.16l.25.19,1.28,1.13,2.56,2.28A65.29,65.29,0,0,1,464.62,96l.68.21a11.44,11.44,0,0,0,1.76.36c1.82.23,2.47-1.21,3.23-2.23a4,4,0,0,1,1.09-1.09c1.3-.77,2.58-1.48,3.91-2.34a29.47,29.47,0,0,0,4.23-3.3c2.77-2.61,7.36-9.1,10.37-11.43a37.87,37.87,0,0,1,4.57-2.78,9.81,9.81,0,0,1-.91-.57A29.62,29.62,0,0,1,488.9,69Z" transform="translate(-89.51 -15.22)"/><path class="cls-8" d="M452.09,102.16c-.49-.53-.94-1-1.31-1.45-1.6-1.92-3.08-3.41-4.31-4.91-.82-.85-1.58-1.66-2.33-2.49l-.57-.61-.6-.58L441.73,91l-1.3-1.2-1.49-1.15-1.64-1.2c-.58-.41-1.23-.77-1.9-1.17a52.62,52.62,0,0,0-10.66-4.64c-.93-.29-1.86-.57-2.78-.88s-1.87-.51-2.79-.8c-1.84-.59-3.73-1-5.57-1.66-.41-.15-.86-.25-1.28-.37-1.62-.37-3.2-.93-4.84-1.3L405,76c-.82-.18-1.66-.28-2.5-.4-.6-.07-1.28-.13-2-.2s-1.55,0-2.4,0-1.74,0-2.64,0l-2.76.17c-1.85.08-3.7.38-5.38.54-.85.07-1.65.22-2.39.32l-2,.26c-1.31.11-2.5.32-3.63.43s-2.18.2-3.19.35l-3.56.38c-1.16.15-2.3.33-3.5.51-.59.1-1.2.18-1.83.31l-1.91.44A37.29,37.29,0,0,0,361,80.3c-.95.32-1.91.66-2.85,1s-1.86.79-2.78,1.19-1.84.8-2.74,1.26l-2.7,1.36-1.35.67-1.33.71q-1.32.7-2.67,1.38c-1.78.91-3.55,1.86-5.39,2.65l-1.24.6c-3,1.55-6.26,2.89-9.19,4.7-1,.67-2.31,1.57-3.69,2.6s-2.78,2.3-4.19,3.5l-2.27,2.28c-.66.71-1.25,1.32-1.76,1.79-1,.94-2.06,1.84-3.16,2.69.93,1.11,1.7,2.19,2.71,3.41.5.61,1.06,1.26,1.71,2l1,1.08.58.56,1,.93c6.85,6.46,14.54,12.11,20.93,19l1.09,1.18c2.79,2.87,5.28,6,8.09,8.89,4.05,4.11,13.25,11.59,17.44,15.56,2.26,2.15,4.07,4,5.7,5.77,4,4.28,6.82,7.88,12.34,13.09,6.85,6.46,14.54,12.12,20.93,19l1.09,1.18c2.79,2.86,5.28,6,8.09,8.89,2,2.05,5.34,4.95,8.67,7.83l2.42,2.08,1.37,1.09c.86.69,1.6,1.3,2.17,1.83a38.65,38.65,0,0,1,3.19,3.34c1-.82,2-1.44,3.08-2.36.53-.46,1.1-1,1.7-1.56s1.18-1.32,1.83-2.12l.58-.76.85-1.22,1.69-2.48c1.11-1.67,2.08-3.42,3.12-5.11s1.95-3.47,3-5.16,2-3.42,3.06-5.1l.72-1.14c.42-.73.87-1.45,1.33-2.16s.87-1.45,1.32-2.17l1.31-2.19c.42-.73.78-1.5,1.15-2.26a34.6,34.6,0,0,0,1.61-4.13c.52-1.6,1.11-3.35,1.53-5.14.23-.89.46-1.78.69-2.65s.37-1.73.56-2.55.36-1.59.52-2.31.28-1.38.4-2c.27-1.26.6-2.4.83-3.49s.48-2.08.73-3.05c.34-1.17.53-2.29.81-3.4s.54-2.21.71-3.36.4-2.36.54-3.67.19-2.72.22-4.29c0-1-.06-2-.11-2.92l-.09-1.45-.17-1.45-.38-2.88-.53-2.85-.25-1.42c-.1-.47-.22-.94-.32-1.41-.21-.93-.41-1.87-.59-2.8s-.44-1.86-.64-2.79l-.27-1.4-.31-1.39c-.09-.42-.18-.86-.26-1.28a70.15,70.15,0,0,0-2.6-9.41c-.45-1.08-1.16-2.38-1.93-3.82-.42-.7-.9-1.41-1.37-2.14s-.94-1.5-1.51-2.19c-1.07-1.42-2.12-2.86-3.21-4.06Z" transform="translate(-89.51 -15.22)"/><path class="cls-6" d="M541.46,45.85c-.11,1-.24,2-.38,3s-.44,1.89-.67,2.86-.62,1.93-.93,3c0,.08-.06.16-.08.23-.16.46-.36.92-.54,1.4s-.41,1.17-.71,1.78a35.24,35.24,0,0,1-5.08,8.6,22.76,22.76,0,0,1-7.93,6.39,8.86,8.86,0,0,1-.95.42l-.13,0c-.66.29-1.35.56-2,.82s-1.41.39-2.11.57l-1.06.27-1.07.19-2.13.39a45.6,45.6,0,0,1-8.34.81,11.78,11.78,0,0,1-1.19,0c-.4,0-.8-.06-1.18-.09-.78-.09-1.56-.11-2.28-.25a23.94,23.94,0,0,1-3.76-.9c-.54-.18-1.06-.37-1.56-.55a14.35,14.35,0,0,1-1.38-.64c-.52-.27-1-.53-1.5-.79a9.23,9.23,0,0,1-.91-.56A29.87,29.87,0,0,1,488.9,69c-.69-.72-1.47-1.41-2.18-2.29l-1.17-1.31c-.4-.46-.76-1-1.18-1.5a36.19,36.19,0,0,1-5.16-8.58c-.16-.42-.32-.85-.47-1.29a22.31,22.31,0,0,1-1.2-8.61c0-.36.09-.76.14-1.14s.06-.7.1-1.06a5.62,5.62,0,0,1,.19-1.06q.24-1,.51-2.07c.16-.69.46-1.35.67-2s.44-1.35.72-2a46.27,46.27,0,0,1,3.42-7.48,29,29,0,0,1,5.33-6.46,11.23,11.23,0,0,1,1.29-1c.42-.32.84-.61,1.24-.88a9.3,9.3,0,0,1,1.22-.72l1.19-.63a30.73,30.73,0,0,1,5.7-2,60.56,60.56,0,0,1,6.81-1.3,41.78,41.78,0,0,1,10.18,0,23.73,23.73,0,0,1,9.64,3.55l1,.66a31.18,31.18,0,0,1,6.16,6c.71.74,1.47,1.78,2.39,2.86.44.56.85,1.19,1.29,1.8.22.32.46.63.65,1s.39.67.6,1a33.29,33.29,0,0,1,2,4.11c.25.67.44,1.33.64,1.93a10.76,10.76,0,0,1,.44,1.69,24.25,24.25,0,0,1,.41,3.08c0,1,0,1.84,0,2.7Z" transform="translate(-89.51 -15.22)"/><path class="cls-8" d="M529.39,52.36a21.8,21.8,0,0,0,1-6.51,26.06,26.06,0,0,0-1.53-8.24,10.74,10.74,0,0,0-1.12-2.25q-.35-.53-.69-1l-.82-.92a19.49,19.49,0,0,0-1.73-1.67,11,11,0,0,0-.94-.75l-.95-.75-1.5-.9c-.52-.27-1-.5-1.42-.73-1.91-1-3.76-2.33-6-2.88a18.9,18.9,0,0,0-8.3.05,22.8,22.8,0,0,0-6.24,2.48,27.56,27.56,0,0,0-6.55,5.41,10.25,10.25,0,0,0-1.47,2.07,7.53,7.53,0,0,0-.53,1.11c-.15.37-.32.74-.45,1.12a26.19,26.19,0,0,0-1,4.64c-.13,1.11,0,2.38,0,3.28.1,2.12-.16,4.36.47,6.51a17.8,17.8,0,0,0,4.2,7,20.06,20.06,0,0,0,5.31,4,28.37,28.37,0,0,0,8.06,2.85,11.47,11.47,0,0,0,1.3.14,9.17,9.17,0,0,0,1.28,0l1.25-.11.62-.07c.2,0,.4-.08.6-.13a18.82,18.82,0,0,0,2.34-.64l1.15-.38c.37-.17.74-.32,1.12-.47s.53-.23.79-.37l.76-.45.72-.41c.24-.13.44-.29.63-.41.45-.3,1-.52,1.43-.8s1-.55,1.46-.81l1.4-.93a9.53,9.53,0,0,0,1.27-1.11,17.72,17.72,0,0,0,4.1-7Z" transform="translate(-89.51 -15.22)"/><path class="cls-6" d="M752.8,278c-.12,1-.24,2-.38,3s-.44,1.89-.67,2.86-.61,1.94-.93,3c-.17.53-.41,1.06-.62,1.62s-.41,1.17-.71,1.78a35,35,0,0,1-5.09,8.6,22.82,22.82,0,0,1-7.92,6.39,9.36,9.36,0,0,1-1.07.47c-.67.29-1.35.56-2,.82s-1.41.4-2.11.58l-1.06.26-1.07.19-2.13.4a50.36,50.36,0,0,1-8,.8c-.11,0-.21,0-.31,0-.39,0-.8,0-1.19,0l-1.18-.1a24.8,24.8,0,0,1-6-1.14c-.54-.18-1.06-.36-1.55-.55a14.52,14.52,0,0,1-1.39-.64,18.22,18.22,0,0,1-2.4-1.35,29,29,0,0,1-4.66-3.8c-.7-.72-1.48-1.41-2.19-2.28l-.07-.09-1.09-1.22c-.4-.46-.77-1-1.19-1.5a36,36,0,0,1-5.15-8.58,23,23,0,0,1-1.67-9.9c0-.37.09-.77.13-1.14s.07-.71.11-1.06a6.35,6.35,0,0,1,.18-1.06c.16-.7.34-1.39.52-2.07s.46-1.36.67-2,.44-1.34.72-2a46.8,46.8,0,0,1,3.28-7.21l.14-.27a28.9,28.9,0,0,1,5.33-6.45,12.44,12.44,0,0,1,1.28-1c.42-.31.84-.59,1.25-.87a10,10,0,0,1,1.21-.73l1.2-.62a28.68,28.68,0,0,1,5.7-2c1-.27,2-.51,3.18-.72s2.3-.41,3.62-.59a40.88,40.88,0,0,1,10.19,0,23.38,23.38,0,0,1,9.63,3.54l1,.66a31.74,31.74,0,0,1,6.16,6c.71.74,1.47,1.78,2.39,2.86.43.56.84,1.19,1.29,1.81.21.31.45.62.65.95s.39.67.59,1a31.93,31.93,0,0,1,2,4.11c.26.68.46,1.33.64,1.94a12.24,12.24,0,0,1,.45,1.68,24.74,24.74,0,0,1,.41,3.08c0,1,0,1.85,0,2.7Z" transform="translate(-89.51 -15.22)"/><path class="cls-8" d="M739,267.46c-.23-.34-.45-.68-.69-1l-.81-.91a18.33,18.33,0,0,0-1.74-1.67,10,10,0,0,0-.94-.75l-.94-.75-1.51-.91c-.51-.27-1-.49-1.41-.72-1.91-1-3.77-2.33-6-2.88a18.9,18.9,0,0,0-8.3,0,22.61,22.61,0,0,0-6.23,2.48,27.41,27.41,0,0,0-6.56,5.42,10.59,10.59,0,0,0-1.47,2.06,8,8,0,0,0-.53,1.11c-.15.37-.32.74-.45,1.12a25.3,25.3,0,0,0-1,4.64c-.14,1.11,0,2.38,0,3.28.1,2.12-.16,4.36.47,6.51a17.55,17.55,0,0,0,4.2,7,19.85,19.85,0,0,0,5.31,4,27.77,27.77,0,0,0,8.06,2.85,9.41,9.41,0,0,0,1.3.15,9.08,9.08,0,0,0,1.28,0l1.25-.11.62-.06.6-.14a19.3,19.3,0,0,0,2.34-.64l1.14-.38c.37-.17.75-.32,1.13-.47s.53-.23.79-.37l.75-.45.73-.41c.24-.12.43-.29.63-.41.45-.3,1-.51,1.42-.8s1-.55,1.46-.81l1.41-.93a9.53,9.53,0,0,0,1.27-1.11,17.84,17.84,0,0,0,4.1-7,22.13,22.13,0,0,0,.95-6.52,26.05,26.05,0,0,0-1.53-8.23,10.34,10.34,0,0,0-1.12-2.26Z" transform="translate(-89.51 -15.22)"/></svg>