<svg id="Layer_1" data-name="Layer 1" xmlns="http://www.w3.org/2000/svg" xmlns:xlink="http://www.w3.org/1999/xlink" viewBox="0 0 427.23 595.3"><defs><style>.cls-1{fill:none;}.cls-2{clip-path:url(#clip-path);}.cls-3{fill:#553395;}.cls-4{fill:#fff;}.cls-5{fill:#1a1a1a;}</style><clipPath id="clip-path" transform="translate(-215.92)"><rect class="cls-1" x="215.91" width="427.21" height="595.28"/></clipPath></defs><title>draft</title><g class="cls-2"><path class="cls-3" d="M588.94,55.09H257.7a37.15,37.15,0,0,0-37.14,37.15V553.5a37.15,37.15,0,0,0,37.14,37.15H588.94a37.16,37.16,0,0,0,37.15-37.15V92.24A37.15,37.15,0,0,0,588.94,55.09Z" transform="translate(-215.92)"/><path class="cls-4" d="M601.32,55.09h-322a37.16,37.16,0,0,0-37.15,37.15V553.5a37.16,37.16,0,0,0,37.15,37.15h322a37.15,37.15,0,0,0,37.14-37.15V92.24A37.11,37.11,0,0,0,601.32,55.09Z" transform="translate(-215.92)"/><path class="cls-5" d="M601.32,50.44H590.75c-.66-25.65-8-50.44-21.6-50.44s-21,24.79-21.6,50.44H504.08C503.42,24.79,496,0,482.48,0s-21,24.79-21.6,50.44H417.41c-.67-25.65-8-50.44-21.6-50.44s-21,24.79-21.6,50.44H330.73C330.07,24.79,322.7,0,309.13,0s-20.95,24.79-21.6,50.44H257.72a41.86,41.86,0,0,0-41.8,41.8V553.5a41.86,41.86,0,0,0,41.8,41.8H601.36a41.86,41.86,0,0,0,41.79-41.8V92.24a41.86,41.86,0,0,0-41.83-41.8ZM569.15,9.28c4.16,0,11.64,15.53,12.32,41.14H556.83C557.51,24.83,565,9.28,569.15,9.28Zm-86.67,0c4.16,0,11.63,15.53,12.32,41.14H470.16C470.84,24.83,478.31,9.28,482.48,9.28Zm-86.67,0c4.16,0,11.63,15.53,12.31,41.14H383.49C384.17,24.83,391.64,9.28,395.81,9.28Zm-86.69,0c4.16,0,11.63,15.53,12.31,41.14H296.8C297.48,24.83,305,9.28,309.12,9.28Zm-83.91,544.2V92.22a32.49,32.49,0,0,1,27.41-32,41.74,41.74,0,0,0-15,32.07V553.5a41.74,41.74,0,0,0,15,32.07,32.51,32.51,0,0,1-27.41-32.09Zm408.62,0A32.55,32.55,0,0,1,601.32,586h-322a32.55,32.55,0,0,1-32.51-32.52V92.22A32.55,32.55,0,0,1,279.36,59.7h42a93.58,93.58,0,0,1-5.79,31A14.14,14.14,0,1,0,322.83,97c4.65-9.24,7.3-23,7.85-37.34h77.39a94.22,94.22,0,0,1-5.8,31A14.11,14.11,0,1,0,409.53,97c4.65-9.24,7.29-23,7.84-37.34h77.39a94.22,94.22,0,0,1-5.8,31A14.11,14.11,0,1,0,496.22,97c4.65-9.24,7.29-23,7.84-37.34h77.39a94.22,94.22,0,0,1-5.8,31A14.13,14.13,0,1,0,582.91,97c4.65-9.24,7.3-23,7.84-37.34h10.61A32.55,32.55,0,0,1,633.87,92.2V553.48Z" transform="translate(-215.92)"/><path class="cls-5" d="M585.85,208.31H363a4.65,4.65,0,1,1,0-9.3H585.85a4.65,4.65,0,0,1,0,9.3Z" transform="translate(-215.92)"/><path class="cls-3" d="M310.32,219.15a15.47,15.47,0,1,0-15.47-15.47A15.47,15.47,0,0,0,310.32,219.15Z" transform="translate(-215.92)"/><path class="cls-5" d="M310.32,223.8a20.12,20.12,0,0,1-19.73-24,20.11,20.11,0,1,1,33.94,18.15A20.25,20.25,0,0,1,310.32,223.8Zm0-31a10.84,10.84,0,0,0-10,6.7,10.86,10.86,0,0,0,2.33,11.81,10.77,10.77,0,0,0,5.55,3,11,11,0,0,0,6.27-.63,10.83,10.83,0,0,0-4.15-20.84Z" transform="translate(-215.92)"/><path class="cls-5" d="M530.11,285.7H362.94a4.65,4.65,0,1,1,0-9.3H530.11a4.66,4.66,0,0,1,4.66,4.65,4.66,4.66,0,0,1-4.66,4.65Z" transform="translate(-215.92)"/><path class="cls-3" d="M310.32,296.54a15.47,15.47,0,1,0-15.47-15.47A15.47,15.47,0,0,0,310.32,296.54Z" transform="translate(-215.92)"/><path class="cls-5" d="M310.32,301.19a20.12,20.12,0,0,1-19.73-24,20.11,20.11,0,1,1,19.73,24Zm0-31a10.84,10.84,0,0,0-10,6.7,10.86,10.86,0,0,0,2.33,11.81,10.77,10.77,0,0,0,5.55,3,11,11,0,0,0,6.27-.63,10.83,10.83,0,0,0-4.15-20.84Z" transform="translate(-215.92)"/><path class="cls-5" d="M558,363.11H363a4.68,4.68,0,0,1-3.29-1.36,4.65,4.65,0,0,1,3.29-7.94H558a4.65,4.65,0,0,1,3.29,7.94A4.73,4.73,0,0,1,558,363.11Z" transform="translate(-215.92)"/><path class="cls-3" d="M310.32,373.93a15.47,15.47,0,1,0-15.47-15.47A15.47,15.47,0,0,0,310.32,373.93Z" transform="translate(-215.92)"/><path class="cls-5" d="M310.32,378.58a20.09,20.09,0,1,1,14.21-5.88A20.23,20.23,0,0,1,310.32,378.58Zm0-31a10.84,10.84,0,0,0-10,6.7,10.86,10.86,0,0,0,2.33,11.81,10.75,10.75,0,0,0,5.55,2.95,10.84,10.84,0,1,0,2.12-21.46Z" transform="translate(-215.92)"/><path class="cls-5" d="M554.89,440.5H363a4.68,4.68,0,0,1-3.29-1.36A4.65,4.65,0,0,1,363,431.2H554.89a4.65,4.65,0,0,1,0,9.3Z" transform="translate(-215.92)"/><path class="cls-3" d="M310.32,451.34a15.47,15.47,0,1,0-15.47-15.47A15.47,15.47,0,0,0,310.32,451.34Z" transform="translate(-215.92)"/><path class="cls-5" d="M310.32,456a20.09,20.09,0,1,1,14.21-5.88A20.16,20.16,0,0,1,310.32,456Zm0-31a10.85,10.85,0,0,0-10,6.69,11,11,0,0,0-.62,6.27,10.74,10.74,0,0,0,8.5,8.5A10.84,10.84,0,1,0,310.32,425Z" transform="translate(-215.92)"/><path class="cls-5" d="M517.74,517.89H363a4.68,4.68,0,0,1-3.29-1.36,4.65,4.65,0,0,1,3.29-7.94H517.74A4.7,4.7,0,0,1,521,510a4.66,4.66,0,0,1,0,6.58A4.7,4.7,0,0,1,517.74,517.89Z" transform="translate(-215.92)"/><path class="cls-3" d="M310.32,528.73a15.47,15.47,0,1,0-15.47-15.47A15.47,15.47,0,0,0,310.32,528.73Z" transform="translate(-215.92)"/><path class="cls-5" d="M310.32,533.36a20.09,20.09,0,1,1,14.21-5.88,20.16,20.16,0,0,1-14.21,5.88Zm0-31a10.85,10.85,0,0,0-10,6.69,11,11,0,0,0-.62,6.27,10.74,10.74,0,0,0,8.5,8.5,10.84,10.84,0,1,0,2.12-21.46Z" transform="translate(-215.92)"/></g></svg>