<svg id="Layer_1" data-name="Layer 1" xmlns="http://www.w3.org/2000/svg" viewBox="0 0 663.31 728.72"><defs><style>.cls-1{fill:#2867ac;}.cls-2{fill:#fff;}.cls-3{fill:#222533;}</style></defs><title>sabeghe kar</title><path class="cls-1" d="M196.31,89.83,215.59,198.6c2.63,14.88,14.22,26.81,27.63,32-2.08-2.6-4.58-6.35-6.91-9.21-8.22-10.38-10.53-23.51-4.22-35.16,8.33-15.24,41-29,53.48-9.36a200.6,200.6,0,0,1,12.76,23.79,41.89,41.89,0,0,0,.42-16.8h0L290,134.7l43.22,7.72.39,34.88,117.88,28.13L515.3,309.59c.3-.93.63-1.84,1-2.75,6.82-16,38-32.78,52.31-14.5a174.67,174.67,0,0,1,10.2,14.58A42.21,42.21,0,0,0,566.9,284.4l-56.16-55.13L489.82,116c-5-29.59-34.91-37.27-42-38.48L439.47,76c-.76,9.35-7.6,26.49-24.66,23.66C391.49,95.83,392,80.45,391.52,67.21c-9.2-1.69-146.19-26.29-146.19-26.29a42.21,42.21,0,0,0-49,48.91Z" transform="translate(-111.31 65.58)"/><path class="cls-2" d="M647,540.29c9.67,10.68,23.37,16.13,39.22,17.34,24,1.82,44.08,1.72,44.08,1.72a38.76,38.76,0,0,1,42,27.35l-99,38.79-64.88-9,12.06,29.64-37.4,14.66L557.93,597" transform="translate(-111.31 65.58)"/><path class="cls-3" d="M583.05,663.14a2.2,2.2,0,0,0,.84-.16l37.39-14.66a2.3,2.3,0,0,0,1.31-3v0l-10.55-26L673,627.77a2.38,2.38,0,0,0,1.15-.14l99-38.78a2.32,2.32,0,0,0,1.37-2.81,40.94,40.94,0,0,0-44.36-29c-1.79,0-21.16,0-43.76-1.72-16.15-1.22-28.83-6.81-37.69-16.59a2.3,2.3,0,1,0-3.44,3l0,.05c9.67,10.68,23.38,16.77,40.75,18.09,23.8,1.81,44.07,1.73,44.26,1.73h.28a36.31,36.31,0,0,1,38.84,23.71L673,623.13l-64.28-8.86a2.3,2.3,0,0,0-2.6,2,2.26,2.26,0,0,0,.15,1.18l11.18,27.49-33.09,13-24.28-61.75a2.3,2.3,0,1,0-4.28,1.69l25.13,63.87a2.28,2.28,0,0,0,2.13,1.46Z" transform="translate(-111.31 65.58)"/><path class="cls-2" d="M226.36,418.23l85.09-190.56,1.39-2.38,2.93-7a56.07,56.07,0,0,1,19.6-39.56V179l3.88.92,114,27.21L517,311.25l73.59,120.19L654.42,535.6l-98,61.95-148-233.82-12.4-19.59h0s-13.89,29.78-19.27,42.54L366.65,414l-1.7,4-7,16.62a61.13,61.13,0,0,1-3.31,6.69l-94.49,165-106.6-61Z" transform="translate(-111.31 65.58)"/><path class="cls-3" d="M260.15,608.65a2.32,2.32,0,0,0,2-1.16l94.48-165a63.94,63.94,0,0,0,3.44-6.94l8.69-20.67a.36.36,0,0,0,0-.09L379,387.52c4.17-9.88,13.52-30.15,17.44-38.59l10.14,16,148,233.82a2.31,2.31,0,0,0,3.18.71h0l98-62a2.32,2.32,0,0,0,.74-3.15L455.23,205.88a2.32,2.32,0,0,0-1.43-1l-117-27.92a2.91,2.91,0,0,0-.42-.25,2.31,2.31,0,0,0-2.46.35A58.74,58.74,0,0,0,313.5,217.8l-2.73,6.46-1.31,2.25-.12.23-85,190.45-72.76,127a2.3,2.3,0,0,0,.85,3.14l106.61,61a2.3,2.3,0,0,0,1.14.31ZM364.51,413.16l-8.69,20.62a60.27,60.27,0,0,1-3.18,6.45l-93.35,163-102.6-58.7,71.66-125.13.11-.21,85-190.45,1.32-2.28c0-.08.09-.17.13-.26l2.93-7a2.61,2.61,0,0,0,.18-.77,54.16,54.16,0,0,1,17.75-37l116,27.66L651.26,534.87l-94.1,59.5L410.41,362.5,398,342.92a2.3,2.3,0,0,0-4,.25c-.14.3-14,30-19.3,42.62a.36.36,0,0,0,0,.09Z" transform="translate(-111.31 65.58)"/><path class="cls-2" d="M388.51-16.74A20.71,20.71,0,0,1,407.35-4.13a31,31,0,0,1,1.9-18.14,29.11,29.11,0,0,1,5.47-8.2l31.7-.12,12.31.42c3.22,5,5.67,10.75,4.11,21.09a37.72,37.72,0,0,1-2.39,8.8,37.87,37.87,0,0,1-18.66,61.41l-.45,16.73a24,24,0,0,1-24.57,23.31h0a23.94,23.94,0,0,1-23.31-24l.17-53.54a18.92,18.92,0,0,1-5.08.63,20.52,20.52,0,1,1,0-41Z" transform="translate(-111.31 65.58)"/><path class="cls-3" d="M417.38,103.48a26.26,26.26,0,0,0,26.26-25.55l.4-15.06a40.15,40.15,0,0,0,19-63.58,40.64,40.64,0,0,0,2-8C466.79-20,464-26.29,460.65-31.41a2.32,2.32,0,0,0-1.86-1.05l-12.31-.42h-.09l-31.7.13A2.27,2.27,0,0,0,413-32a31,31,0,0,0-8.49,19.72,22.65,22.65,0,0,0-16-6.73,22.82,22.82,0,1,0,0,45.63h0a25.57,25.57,0,0,0,2.77-.15l-.17,50.75a26.1,26.1,0,0,0,25.56,26.28Zm40-131.39c2.87,4.74,4.43,9.88,3.14,18.49a35.48,35.48,0,0,1-2.24,8.28,2.27,2.27,0,0,0,.39,2.38,35.57,35.57,0,0,1-17.53,57.68,2.31,2.31,0,0,0-1.7,2.16L439,77.81a21.66,21.66,0,0,1-43.32-.6l.19-53.54a2.31,2.31,0,0,0-2.29-2.31,2.37,2.37,0,0,0-.65.09,16.27,16.27,0,0,1-4.44.54A18.21,18.21,0,1,1,405.26-3.2a2.29,2.29,0,0,0,3,1.2,2.28,2.28,0,0,0,1.35-2.53,28.91,28.91,0,0,1,1.74-16.79,27,27,0,0,1,4.38-6.83l30.64-.12Z" transform="translate(-111.31 65.58)"/><path class="cls-2" d="M325.7,281.82a45.27,45.27,0,0,1,2.68,16v2.92h24.79a23.63,23.63,0,0,1,23.63,23.63v63.78a23.63,23.63,0,0,1-23.63,23.63h-140a23.64,23.64,0,0,1-23.64-23.63V324.34a23.65,23.65,0,0,1,23.64-23.63h24.79v-4.1a45.15,45.15,0,0,1,20.24-37.08L262.3,276a29.71,29.71,0,0,0-9,21.83v2.92h54.41s-.87,10.71,9,10.78C327.87,311.57,325.7,281.82,325.7,281.82Z" transform="translate(-111.31 65.58)"/><path class="cls-3" d="M213.15,414.05h140a26,26,0,0,0,25.94-25.93V324.34a26,26,0,0,0-25.94-25.93H330.68v-.62A47.3,47.3,0,0,0,327.86,281a2.3,2.3,0,0,0-4.46.95c.41,5.6.48,21.18-4,26a3.45,3.45,0,0,1-2.61,1.22h0a6.23,6.23,0,0,1-4.8-1.81c-2.21-2.38-1.94-6.46-1.94-6.49a2.31,2.31,0,0,0-2.13-2.48H255.6v-.63a27.28,27.28,0,0,1,8.31-20.18,2.34,2.34,0,0,0,.63-2.21L260.42,259a2.3,2.3,0,0,0-2.79-1.67,2.12,2.12,0,0,0-.72.32,47.5,47.5,0,0,0-21.26,39v1.83h-22.5a26,26,0,0,0-25.94,25.93v63.78a26,26,0,0,0,25.94,25.92Zm140-111a21.36,21.36,0,0,1,21.33,21.33v63.78a21.36,21.36,0,0,1-21.33,21.33h-140a21.36,21.36,0,0,1-21.33-21.33V324.34A21.36,21.36,0,0,1,213.15,303h24.79a2.3,2.3,0,0,0,2.31-2.3v-4.1a42.83,42.83,0,0,1,16.52-33.23l3,11.88A32.27,32.27,0,0,0,251,297.83v2.88a2.3,2.3,0,0,0,2.31,2.3h52.17a13.08,13.08,0,0,0,3,7.48,10.75,10.75,0,0,0,8.19,3.31,8,8,0,0,0,6-2.67c1.94-2.07,3.22-5.25,4-8.75a2.35,2.35,0,0,0,1.61.65Z" transform="translate(-111.31 65.58)"/><path class="cls-2" d="M245.77,598c-2,14.19,6,25.58,23.84,26.84,19,1.34,37.28,16.55,27.83,33.2H184.93l-21.69-30.44-13.3,29.12-36.33-17.14,43.49-92.31Z" transform="translate(-111.31 65.58)"/><path class="cls-3" d="M184.93,660.36H297.44a2.32,2.32,0,0,0,2-1.17c3.67-6.48,3.83-13.24.45-19.55-5-9.3-17.09-16.16-30.13-17.08-8-.56-14.15-3.3-17.9-7.93-3.41-4.21-4.73-9.85-3.82-16.3a2.32,2.32,0,0,0-1.14-2.32l-88.67-50.72a2.3,2.3,0,0,0-3.14.85l-.08.16-43.49,92.31a2.29,2.29,0,0,0,1.1,3.06L149,658.81a2.31,2.31,0,0,0,3.07-1.1v0l11.65-25.49,19.38,27.19a2.29,2.29,0,0,0,1.87,1Zm111.12-4.61H186.12l-21-29.46a2.29,2.29,0,0,0-3.21-.54,2.34,2.34,0,0,0-.76.92l-12.33,27-32.14-15.16,41.44-88,85.18,48.73c-.67,7.11,1,13.4,5,18.28,4.57,5.64,11.89,9,21.16,9.62,11.33.8,22.19,6.83,26.39,14.66A14.56,14.56,0,0,1,296.05,655.75Z" transform="translate(-111.31 65.58)"/><path class="cls-3" d="M431.82,64.77a40.32,40.32,0,0,0,11.39-1.64,2.3,2.3,0,0,0-1.29-4.42,35.48,35.48,0,0,1-30.41-5,2.31,2.31,0,0,0-2.64,3.79,40.07,40.07,0,0,0,22.95,7.23Z" transform="translate(-111.31 65.58)"/><path class="cls-3" d="M451.79,11.44a2.3,2.3,0,0,0,2.3-2.3,2,2,0,0,0,0-.42l-3.46-19A2.31,2.31,0,0,0,447.86-12a2.3,2.3,0,0,0-1.8,2.59L449,6.67l-7.81-.45a2.29,2.29,0,1,0-.27,4.58h0l10.73.63Z" transform="translate(-111.31 65.58)"/><circle class="cls-3" cx="319.92" cy="60.75" r="3.99"/><circle class="cls-3" cx="348.66" cy="62.5" r="3.99"/><path class="cls-3" d="M386.94,10.82a2.29,2.29,0,0,0,.78-.14L401,5.89a2.3,2.3,0,0,0,.07-4.3L383-5.55a2.3,2.3,0,0,0-3,1.24,2.3,2.3,0,0,0,1.24,3l.08,0,12.41,4.9-7.56,2.72a2.3,2.3,0,0,0,.78,4.47Z" transform="translate(-111.31 65.58)"/><path class="cls-3" d="M444.7,37.28c5.58,0,11.42-4.22,12.46-14a2.31,2.31,0,0,0-2.05-2.53h0l-20.87-2.07a2.29,2.29,0,0,0-2.51,2.06.86.86,0,0,0,0,.16c-.3,10.15,5.94,15.89,12.26,16.32l.74,0Zm7.5-12.15c-1.32,5.82-4.95,7.74-7.93,7.54-3.62-.25-7.2-3.43-7.87-9.1Z" transform="translate(-111.31 65.58)"/><path class="cls-2" d="M385.4-16.69a21.54,21.54,0,0,1,10.3,1.24c9.55,4.15,13.23,17.54,13.23,17.54l1.84-23.62a7.73,7.73,0,0,1,7.52-7.89l43.92-1.09v-25a7.82,7.82,0,0,0-7.82-7.81H393.1a7.81,7.81,0,0,0-7.81,7.78s.13,38.39.11,38.81Z" transform="translate(-111.31 65.58)"/><path class="cls-3" d="M408.93,4.4h.23a2.3,2.3,0,0,0,2.07-2.11l1.84-23.62a1.77,1.77,0,0,0,0-.23,5.44,5.44,0,0,1,5.28-5.55l43.92-1.09a2.29,2.29,0,0,0,2.24-2.3v-25A10.14,10.14,0,0,0,454.4-65.58H393.1A10.13,10.13,0,0,0,383-55.51c0,13,.12,37.9.1,38.76A2.19,2.19,0,0,0,383.8-15a2.28,2.28,0,0,0,1.83.6l.11,0a18.32,18.32,0,0,1,9,1.07c8.41,3.66,11.9,15.93,11.94,16.05a2.29,2.29,0,0,0,2.21,1.7Zm-.46-26L407.35-7.24c-2.32-3.93-5.79-8.18-10.73-10.32a21.8,21.8,0,0,0-8.92-1.59c0-6.18-.06-22.37-.1-36.36A5.51,5.51,0,0,1,393.11-61h61.3a5.51,5.51,0,0,1,5.51,5.51v22.71l-41.67,1a10.06,10.06,0,0,0-9.78,10.12Z" transform="translate(-111.31 65.58)"/><path class="cls-2" d="M585.64,317.72c-5-11.84-11-17.75-16.88-26-14.32-18.28-46.19-2.26-53,13.71a33,33,0,0,0,6.63,35.81c11.82,11.94,24,16.43,21.14,42.79-1.29,11.89-5,29.51,6.25,30.32,7.83.57,13.05-19.84,17.45-34.75,3.27,22.11,7.59,51.07,17.66,50.18s8.9-22.25,4.46-50.86C599.72,409.46,601,427,610.57,425c10-2.09,6.65-28.34-.18-52.54" transform="translate(-111.31 65.58)"/><path class="cls-3" d="M584.39,432.11l.7,0a8.42,8.42,0,0,0,6.07-3.34c3.2-4.09,4.37-11.73,3.51-24.74,2.12,7.22,3.88,13,5.89,16.86,1,1.92,4,7.76,10.49,6.41a8.24,8.24,0,0,0,5.47-4.06c6.53-10.75-.56-39.49-3.9-51.35a2.31,2.31,0,0,0-4.45,1.21s0,0,0,0c6.43,22.79,8.16,41.52,4.4,47.72a3.75,3.75,0,0,1-2.47,1.94c-4.67,1-7-6.15-11.68-22.37-1.89-6.45-4-13.77-6.89-22.21a2.3,2.3,0,0,0-4.46,1.08c2.62,16.92,5.53,40.15.46,46.63a3.94,3.94,0,0,1-2.84,1.6c-1.77.15-5.28-1.56-9-14.79-2.73-9.82-4.66-22.91-6.22-33.44A2.31,2.31,0,0,0,565,379c-.36,1.22-.72,2.47-1.1,3.75-3.24,11.12-8.66,29.75-14,29.36a5,5,0,0,1-3.72-1.74c-3.17-3.87-2-13.67-1-21.54.2-1.56.39-3.07.54-4.49,2.46-22.79-5.89-30.24-15.56-38.86-2-1.82-4.15-3.7-6.23-5.8a30.69,30.69,0,0,1-6.15-33.29c4-9.37,17.56-18.62,29.62-20.2,5.77-.75,13.81-.16,19.42,7,1.54,2.17,3.11,4.2,4.62,6.15,4.32,5.6,8.41,10.89,12,19.37a2.3,2.3,0,1,0,4.27-1.73l0-.06c-3.81-9-8.27-14.81-12.58-20.39-1.5-1.94-3-3.94-4.54-6.06l-.06-.08c-5.42-6.92-13.84-10-23.69-8.74-13.69,1.8-28.61,12.1-33.25,23a35.3,35.3,0,0,0,7.1,38.32c2.2,2.23,4.36,4.15,6.45,6,9.08,8.1,16.25,14.49,14,34.93-.15,1.4-.34,2.89-.53,4.42-1.15,9.2-2.46,19.63,2,25a9.49,9.49,0,0,0,6.95,3.41,4.1,4.1,0,0,0,.5,0c7.6,0,12.24-12.6,16.4-26.48,3.88,24.35,8.29,41.92,17.84,41.92Z" transform="translate(-111.31 65.58)"/><path class="cls-2" d="M552.13,316c4.54,12.73,17.28,20.66,27.26,32.32,13.82,16.11,24.2,25.17,29.11,24.18,11.29-2.3-11.29-28.3-22.86-54.82" transform="translate(-111.31 65.58)"/><path class="cls-3" d="M607.7,374.92a6.36,6.36,0,0,0,5.64-3.38c2.17-4.89-2.25-12.77-10.92-27.43-4.94-8.36-10.53-17.81-14.67-27.31a2.3,2.3,0,1,0-4.22,1.84h0c4.25,9.76,9.92,19.35,14.93,27.81,5.62,9.5,12,20.28,10.67,23.23,0,.11-.19.42-1.09.61-1.36.28-7.33-.61-26.9-23.43-3.38-3.83-7-7.48-10.7-10.95-6.84-6.53-13.3-12.69-16.14-20.64a2.3,2.3,0,0,0-4.36,1.47l0,.07c3.2,9,10,15.51,17.29,22.42a146.64,146.64,0,0,1,10.39,10.62c18.36,21.42,26.05,25.07,30.06,25.07Z" transform="translate(-111.31 65.58)"/><path class="cls-2" d="M233.84,184.09A33,33,0,0,0,237,220.38c10.62,13.05,18.79,20.18,22.75,50.1,1.58,11.85,6.34,13.24,10,13,7.83-.41,10.17-7.67,10.17-11.89.55,7.4,3.66,12.27,10.95,11.89a11.45,11.45,0,0,0,10.95-11.26c7.39,31.4,5.18,41.05,14.91,40,16.06-1.75,4.74-66.93-5.24-88.41-7.6-16.41-10.23-27-20.46-43.05C274.46,154.17,242.17,168.85,233.84,184.09Z" transform="translate(-111.31 65.58)"/><path class="cls-3" d="M315.25,314.64a13.57,13.57,0,0,0,1.69-.1c1.94-.21,4.67-1.23,6.74-4.9,8.72-15.44-1.58-68.35-10.15-86.78-2.44-5.29-4.36-9.94-6.22-14.45-3.79-9.19-7.36-17.87-14.38-28.86-8.35-13.44-19.78-16-27.88-15.78-15,.41-28.31,10.2-33.23,19.2h0a35.28,35.28,0,0,0,3.37,38.82c1.05,1.29,2.05,2.5,3,3.68,9.13,11,15.74,18.91,19.23,45.3,1.37,10.34,5.53,15.4,12.38,15a12,12,0,0,0,9.93-5.77c2.88,5.21,7.88,5.94,11.19,5.77a13.71,13.71,0,0,0,10.3-5.39c1.17,5.49,2,10.17,2.76,14.16,2.47,13.44,3.69,20.05,11.23,20.05ZM266,168.36c6.84,0,16.13,2.47,23.07,13.65,6.81,10.66,10.15,18.77,14,28.16,1.87,4.55,3.81,9.25,6.3,14.63,9,19.35,17.79,69.33,10.31,82.58-1.34,2.37-2.76,2.53-3.23,2.58-4.36.47-5.1-1-7.89-16.19-1.06-5.78-2.39-13-4.52-22a2.3,2.3,0,0,0-4.54.49,9.17,9.17,0,0,1-8.76,9c-3.35.17-7.87-.65-8.54-9.76a2.3,2.3,0,0,0-4.6.17c0,3.16-1.67,9.26-8,9.59-1.81.09-6.07.32-7.58-11.05-3.67-27.71-11-36.5-20.26-47.63-1-1.17-2-2.37-3-3.62a30.71,30.71,0,0,1-2.91-33.74c4.37-8,16.53-16.45,29.32-16.81l.79,0Z" transform="translate(-111.31 65.58)"/><path class="cls-3" d="M495.62,234.18h.17l13.43-1a2.3,2.3,0,1,0-.33-4.59l-13.43,1a2.3,2.3,0,0,0,.16,4.6Z" transform="translate(-111.31 65.58)"/><path class="cls-3" d="M353.6,147.89a2.3,2.3,0,0,0,.19-4.6l-18.16-1.53a2.3,2.3,0,0,0-.38,4.59l18.15,1.53Z" transform="translate(-111.31 65.58)"/><path class="cls-3" d="M289.15,135h.23a2.31,2.31,0,0,0,2.07-2.52l-1.92-19.18a2.3,2.3,0,0,0-4.58.46h0L286.87,133A2.29,2.29,0,0,0,289.15,135Z" transform="translate(-111.31 65.58)"/><path class="cls-2" d="M396,344.2l26.1-66" transform="translate(-111.31 65.58)"/><path class="cls-3" d="M396,346.5a2.31,2.31,0,0,0,2.14-1.46l26.1-66a2.3,2.3,0,1,0-4.28-1.69l-26.1,66a2.3,2.3,0,0,0,1.29,3,2.72,2.72,0,0,0,.85.16Z" transform="translate(-111.31 65.58)"/></svg>