<svg id="Layer_1" data-name="Layer 1" xmlns="http://www.w3.org/2000/svg" viewBox="0 0 651.97 461.82"><defs><style>.cls-1{fill:#3a429c;}.cls-2{fill:#383b47;}.cls-3{fill:#abc3de;}.cls-4{fill:#f0f3e6;}</style></defs><title>SKILLS</title><ellipse class="cls-1" cx="453.3" cy="355.69" rx="113.18" ry="101.49"/><path class="cls-2" d="M556.54,526.75c-65,0-117.83-47.6-117.83-106.13s52.86-106.13,117.83-106.13,117.83,47.6,117.83,106.13S621.51,526.75,556.54,526.75Zm0-203c-59.85,0-108.55,43.45-108.55,96.87s48.7,96.87,108.55,96.87S665.1,474.06,665.1,420.64s-48.7-96.87-108.56-96.87Z" transform="translate(-103.24 -64.94)"/><path class="cls-2" d="M556.54,487.76c-38.86,0-75.62-6.48-103.47-18.24a4.63,4.63,0,1,1,3.61-8.53c26.75,11.29,62.22,17.51,99.86,17.51s73.12-6.22,99.87-17.51a4.63,4.63,0,1,1,3.67,8.51l-.08,0C632.16,481.3,595.41,487.76,556.54,487.76Z" transform="translate(-103.24 -64.94)"/><path class="cls-2" d="M556.54,443.26c-44.82,0-86.83-8.68-115.21-23.78a4.63,4.63,0,1,1,4.34-8.17h0C472.76,425.73,513.18,434,556.54,434s83.77-8.27,110.85-22.71a4.64,4.64,0,1,1,4.37,8.19h0c-28.39,15.1-70.37,23.76-115.22,23.76Z" transform="translate(-103.24 -64.94)"/><path class="cls-3" d="M746.68,283.24c-15.78-65-58.82-118.08-114.56-156.25C582.63,93.11,522.91,73.4,459.39,70A366.62,366.62,0,0,0,358.3,78.77a356.31,356.31,0,0,0-97.25,37.8C194.74,154.4,140,202.47,113.8,283.71c-17,52.67,2.63,109.75,53.74,131.15a100.22,100.22,0,0,0,88.07-5.13A69.41,69.41,0,0,0,325.1,479h0c15.1,0,39.11-3.87,54.64-8.68,102.67-31.78,158.76-79.11,272.13-41.51,7.27,2.41,14.68,2.95,21.92,3.55,31.9,2.69,53.83-19.33,65.91-47.52,12-28,13.54-74.63,7-101.62Z" transform="translate(-103.24 -64.94)"/><path class="cls-2" d="M325.14,483.64a74.07,74.07,0,0,1-73.76-66.49,104.84,104.84,0,0,1-85.59,2,100,100,0,0,1-54.93-56.43c-9.64-24.75-10.15-53.31-1.42-80.39,23.06-71.61,69.12-124,149.35-169.73A360.82,360.82,0,0,1,357.3,74.3a370.45,370.45,0,0,1,102.37-8.84C524,68.86,584.59,88.82,634.78,123.2,695.85,165,736.11,220,751.21,282.17c6.55,26.95,5.65,74.57-7.18,104.55-14.79,34.5-40.5,52.84-70.56,50.3l-1-.07c-7.15-.6-14.54-1.22-22-3.7-84.7-28.1-136.47-8-202,17.37-20.95,8.13-42.62,16.53-67.3,24.18-16.14,4.94-40.74,8.84-56.07,8.84Zm-69.51-78.55a4.62,4.62,0,0,1,4.63,4.62,64.74,64.74,0,0,0,64.86,64.65h0c14.54,0,37.94-3.71,53.27-8.47,24.36-7.53,45.88-15.89,66.7-23.95,32.43-12.56,63.05-24.43,95.86-29.28,36.38-5.35,72.1-1.62,112.41,11.76,6.42,2.12,13.24,2.7,19.85,3.25l1,.07c15.16,1.28,43.3-2.83,61.27-44.72,11.72-27.33,12.92-73.11,6.7-98.73-14.55-59.92-53.5-113-112.66-153.52C580.73,97.35,521.82,78,459.16,74.62a362.1,362.1,0,0,0-99.81,8.62,353.93,353.93,0,0,0-96,37.37c-37.05,21.15-64.89,42.26-87.6,66.43-26.58,28.31-45.39,60.4-57.54,98.09-8.07,25.06-7.64,51.42,1.26,74.2a89.55,89.55,0,0,0,49.87,51.24,95.15,95.15,0,0,0,37,7.46,96.15,96.15,0,0,0,47-12.36,4.92,4.92,0,0,1,2.28-.58Z" transform="translate(-103.24 -64.94)"/><ellipse class="cls-4" cx="127.92" cy="240.43" rx="21.14" ry="21.09"/><path class="cls-2" d="M231.16,331.12A25.76,25.76,0,1,1,257,305.37,25.78,25.78,0,0,1,231.16,331.12Zm0-42.25a16.5,16.5,0,1,0,16.51,16.5h0a16.51,16.51,0,0,0-16.51-16.5Z" transform="translate(-103.24 -64.94)"/><ellipse class="cls-1" cx="206.96" cy="153.76" rx="21.14" ry="21.09"/><path class="cls-2" d="M310.2,244.45A25.76,25.76,0,1,1,336,218.7h0A25.8,25.8,0,0,1,310.2,244.45Zm0-42.25a16.5,16.5,0,1,0,16.52,16.5h0A16.51,16.51,0,0,0,310.2,202.2Z" transform="translate(-103.24 -64.94)"/><ellipse class="cls-1" cx="351.54" cy="233.14" rx="21.14" ry="21.09"/><path class="cls-2" d="M454.78,323.83a25.76,25.76,0,1,1,25.79-25.75h0A25.8,25.8,0,0,1,454.78,323.83Zm0-42.25a16.5,16.5,0,1,0,16.51,16.5A16.51,16.51,0,0,0,454.78,281.58Z" transform="translate(-103.24 -64.94)"/><ellipse class="cls-1" cx="258.43" cy="303.58" rx="21.14" ry="21.09"/><path class="cls-2" d="M361.67,394.27a25.76,25.76,0,1,1,25.78-25.75A25.77,25.77,0,0,1,361.67,394.27Zm0-42.25a16.5,16.5,0,1,0,16.51,16.5h0A16.53,16.53,0,0,0,361.67,352Z" transform="translate(-103.24 -64.94)"/><ellipse class="cls-4" cx="461.45" cy="137.55" rx="21.14" ry="21.09"/><path class="cls-2" d="M564.69,228.24a25.76,25.76,0,1,1,25.79-25.75h0a25.81,25.81,0,0,1-25.79,25.75Zm0-42.25a16.5,16.5,0,1,0,16.51,16.5h0A16.51,16.51,0,0,0,564.69,186Z" transform="translate(-103.24 -64.94)"/><ellipse class="cls-4" cx="578.39" cy="224.18" rx="21.14" ry="21.09"/><path class="cls-2" d="M681.63,314.87a25.76,25.76,0,1,1,25.79-25.75h0A25.81,25.81,0,0,1,681.63,314.87Zm0-42.26a16.49,16.49,0,1,0,16.52,16.49A16.5,16.5,0,0,0,681.63,272.61Z" transform="translate(-103.24 -64.94)"/><ellipse class="cls-4" cx="466.79" cy="303.73" rx="21.14" ry="21.09"/><path class="cls-2" d="M570,394.42a25.76,25.76,0,1,1,25.79-25.75h0A25.81,25.81,0,0,1,570,394.42Zm0-42.25a16.5,16.5,0,1,0,16.52,16.5h0A16.53,16.53,0,0,0,570,352.17Z" transform="translate(-103.24 -64.94)"/><path class="cls-2" d="M543.53,207.11H394.28a4.63,4.63,0,0,1-3.27-1.36L289.11,104a4.64,4.64,0,0,1,6.57-6.55l100.54,100.4H543.54a4.63,4.63,0,1,1,0,9.26Z" transform="translate(-103.24 -64.94)"/><path class="cls-2" d="M507.64,144.76H449.1a4.62,4.62,0,1,1,0-9.24h56.62l48.4-48.33a4.63,4.63,0,0,1,6.56,6.54l-49.75,49.68a4.71,4.71,0,0,1-3.29,1.35Z" transform="translate(-103.24 -64.94)"/><path class="cls-2" d="M253.52,416a4.62,4.62,0,0,1-3.27-7.89l43-42.9a4.63,4.63,0,0,1,3.28-1.35h44a4.62,4.62,0,1,1,0,9.24H298.41l-41.59,41.53A4.69,4.69,0,0,1,253.52,416Z" transform="translate(-103.24 -64.94)"/><path class="cls-2" d="M579.3,302.7H475.92a4.62,4.62,0,1,1,0-9.24H577.37l114-113.85a4.64,4.64,0,1,1,6.64,6.48l-.08.07L582.58,301.36A4.67,4.67,0,0,1,579.3,302.7Z" transform="translate(-103.24 -64.94)"/><path class="cls-2" d="M743.9,377a4.63,4.63,0,0,1-3.28-1.35L678.34,313.5a4.64,4.64,0,1,1,6.53-6.59l0,0,62.28,62.2a4.63,4.63,0,0,1-3.29,7.9Z" transform="translate(-103.24 -64.94)"/><path class="cls-2" d="M360.63,479.64a4.63,4.63,0,0,1-3.27-7.91L463.84,365.4a4.63,4.63,0,0,1,3.28-1.35h81.75a4.62,4.62,0,1,1,0,9.24H469l-105.14,105a4.59,4.59,0,0,1-3.27,1.37Z" transform="translate(-103.24 -64.94)"/><path class="cls-2" d="M289.06,223.32H218a4.63,4.63,0,0,1-3.27-1.36l-40.33-40.25a4.64,4.64,0,0,1,6.57-6.56l39,38.91h69.19a4.63,4.63,0,0,1,0,9.26Z" transform="translate(-103.24 -64.94)"/><path class="cls-2" d="M192.88,369.34H116.7a4.62,4.62,0,1,1,0-9.24H191l36.93-36.87a4.64,4.64,0,1,1,6.58,6.54h0L196.17,368A4.77,4.77,0,0,1,192.88,369.34Z" transform="translate(-103.24 -64.94)"/><ellipse class="cls-4" cx="324.7" cy="75.18" rx="21.14" ry="21.09"/><path class="cls-2" d="M427.94,165.88a25.76,25.76,0,1,1,25.78-25.76h0A25.79,25.79,0,0,1,427.94,165.88Zm0-42.25a16.49,16.49,0,1,0,16.51,16.49h0A16.52,16.52,0,0,0,427.94,123.63Z" transform="translate(-103.24 -64.94)"/></svg>