<svg id="Layer_1" data-name="Layer 1" xmlns="http://www.w3.org/2000/svg" viewBox="0 0 665.3 567"><defs><style>.cls-1{fill:#2867ac;}.cls-2{fill:#fff;}.cls-3{fill:#222533;}</style></defs><title>summary</title><path class="cls-1" d="M602.26,116.94c-.58-1-.47-2.31-1-3.28s-1.73-1.54-2.4-2.4a29.65,29.65,0,0,0-1.93-2.69c-.77-.76-1.84-1.25-2.69-2a26.54,26.54,0,0,0-2.22-2.51c-.87-.67-1.73-1.35-2.69-2s-1.93-1-2.8-1.54-1.93-1-2.8-1.44-1.64-1.35-2.6-1.83-2-.77-3-1.26a29.86,29.86,0,0,0-2.89-1.43c-1.06-.39-1.84-1.17-2.8-1.55s-2.51-.09-3.57-.47-2.21-.77-3.36-1.06-2.22-.67-3.37-1-2.21-.87-3.27-1.16-2.22-.67-3.36-1-2.22-.87-3.37-1-2.31-.58-3.47-.76-2.4,0-3.57-.2-2.21-1.06-3.27-1.26-2.31-.29-3.47-.58-2.31-.2-3.47-.38-2.4-.09-3.47-.38a34.89,34.89,0,0,0-3.48-.77c-1.16-.19-2.21-.76-3.36-1s-2.22-.58-3.37-.87-2.31-.29-3.47-.58-2-1.44-3.07-1.73-2.22-.58-3.37-1S509,77.4,507.91,77s-2-1.16-3.08-1.64-1.92-1.25-3-1.73-2.22-.76-3.27-1.25a28.34,28.34,0,0,1-3.18-1.34c-1-.59-2-1.17-3-1.73s-1.63-1.73-2.6-2.31-1.92-1.25-2.89-1.93-2.12-1-3.07-1.63-1.64-1.73-2.51-2.4-1.73-1.44-2.6-2.22-1.73-1.54-2.6-2.22-2.22-.87-3.07-1.63-1.64-1.64-2.4-2.4-1.44-1.84-2.31-2.6-1.55-1.64-2.41-2.51-1.92-1.25-2.79-2-1.64-1.64-2.51-2.4-1.55-1.64-2.4-2.51-1.26-2-2.13-2.8-2-1.16-2.89-1.92a2.46,2.46,0,0,0-3-.39,2.12,2.12,0,0,0-.48,3c.68,1,1.06,2.13,1.73,3s1.44,1.84,2.13,2.7,1.63,1.63,2.31,2.59,1.72,1.55,2.4,2.4,1,2.13,1.73,3,1.54,1.73,2.31,2.6,1.92,1.35,2.69,2.22,1.63,1.64,2.4,2.4,1.73,1.44,2.6,2.22,1.64,1.54,2.51,2.3,1.73,1.44,2.69,2.22S477,67.47,478,68.16s1.35,1.92,2.31,2.59S482,72.19,483,72.88s2.31.76,3.18,1.44,1.55,1.92,2.51,2.5,2.13,1,3.08,1.55,1.92,1.25,2.89,1.83,1.92,1.35,2.89,1.84,2.22.67,3.27,1.16,1.93,1.25,3,1.73,2.13.87,3.18,1.25,2,1.16,3.08,1.54,2.22.68,3.27,1.06,2.31.38,3.37.67,2.31.47,3.36.76,2.22.59,3.37.88,2.21.87,3.36,1.16,2.31.47,3.37.76,2.21.67,3.36,1,2.4.1,3.47.39,2.31.47,3.37.76,2.31.48,3.36.77a31.53,31.53,0,0,0,3.37,1c1.16.2,2.4-.09,3.56.2s2.22,1,3.27,1.25,2.41.2,3.48.48,2.12,1.25,3.18,1.54,2.22.76,3.27,1.16,2.22.67,3.27,1.06,2.22.87,3.28,1.25,2.12,1,3.18,1.44,2.12,1,3.18,1.54,2.22.77,3.18,1.35,2,1.16,3,1.72S585,111,586,111.66a32.84,32.84,0,0,1,2.6,2.4c.87.77,1.73,1.55,2.6,2.31s1.63,1.64,2.51,2.4,1.54,1.64,2.4,2.51a3.44,3.44,0,0,0,3.27.67,4.07,4.07,0,0,0,2.8-1.84c1.18-1,.8-2,.12-3.17Z" transform="translate(-65.01 -14.14)"/><path class="cls-1" d="M535.06,56.89c-1.26-.09-2.51,0-3.77,0s-2.5-.58-3.76-.67-2.4-.09-3.65-.29a23,23,0,0,1-3.66-.58,26.65,26.65,0,0,1-3-1c-1-.38-1.93-.76-2.89-1.16a25.85,25.85,0,0,1-2.8-1.34c-.87-.48-1.73-1.17-2.6-1.73a23.22,23.22,0,0,1-2.69-1.64c-1.17-1-2.7-1.16-3.48-.38s-.47,2.22.59,3.27c.76.77,1,2.22,1.83,3s2,1.06,3,1.73,1.73,1.44,2.6,2.13,2.22.67,3.18,1.16,1.84,1.34,2.9,1.83S519,62,520,62.39a31.22,31.22,0,0,0,3.36.48,18,18,0,0,0,3.27.2c1.06.19,2.22.29,3.37.38,1.16-.2,2.22-.38,3.27-.67a19.93,19.93,0,0,0,3.28-.88,2.52,2.52,0,0,0,1.54-3.07A3.5,3.5,0,0,0,535.06,56.89Z" transform="translate(-65.01 -14.14)"/><path class="cls-1" d="M204.46,455.53c-1.16-.2-2.4-.38-3.57-.58s-2.4,0-3.56-.09-2.4-.2-3.56-.38-2.31-.39-3.57-.58-2.51.47-3.65.29a23.62,23.62,0,0,1-3.47-1.17,33.52,33.52,0,0,1-3.28-1.34c-1.05-.38-2.12-1-3.27-1.35a32.94,32.94,0,0,1-3.18-1.43c-1.06-.48-2.4-.48-3.47-1.06s-2-1.16-3.08-1.73a31.23,31.23,0,0,1-2.8-2.21c-1-.68-2.21-.87-3.18-1.55s-1.64-1.72-2.6-2.4-2.12-1.05-3.07-1.72a29.47,29.47,0,0,1-2.8-2.13c-.87-.76-1.84-1.44-2.69-2.22s-1.35-2-2.13-2.79-1.44-1.84-2.22-2.69-2-1.26-2.8-2.22-1.54-1.73-2.31-2.6a31.56,31.56,0,0,1-2-2.89c-.68-1-1.64-1.72-2.31-2.69s-.88-2.21-1.55-3.18-1.73-1.63-2.4-2.6-1.06-2.12-1.73-3.18-1.44-1.92-2-2.88-.76-2.31-1.44-3.28-1-2.12-1.63-3.07-1.64-1.83-2.22-2.8a30.41,30.41,0,0,1-1.73-3.07c-.47-1.05-.58-2.31-1.16-3.36s-1.06-2.13-1.64-3.18-1.54-1.93-2-3-1-2.13-1.54-3.18a34.41,34.41,0,0,1-1.44-3.27c-.47-1.15-1.16-2-1.64-3.18s-.67-2.31-1.16-3.37-1-2.12-1.34-3.18-.58-2.3-1-3.36-1-2.12-1.43-3.18-1.06-2.12-1.44-3.18-.68-2.21-1.06-3.36-.58-2.22-1-3.36-1.55-1.93-1.84-3.08a29.29,29.29,0,0,0-1.16-3.27c-.4-1.05-.47-2.31-.87-3.36s-.77-2.22-1.06-3.36-.58-2.31-.87-3.37-.67-2.21-.87-3.36-.29-2.31-.47-3.47-.39-2.31-.59-3.47,0-2.4-.19-3.56-1-2.31-1.06-3.47-.38-2.31-.47-3.56.29-2.4.2-3.56,0-2.4-.1-3.57-.29-2.4-.29-3.56-.2-2.4-.2-3.56-.19-2.4-.19-3.56.09-2.4.09-3.56.58-2.31.67-3.57,0-2.4.09-3.56.2-2.4.29-3.56,0-2.4.2-3.56,1-2.22,1.26-3.36.47-2.31.76-3.47.09-2.4.38-3.57c.38-1.54-.2-2.21-1.25-2.5s-1.84.2-2.4,1.54c-.48,1.06-1.73,1.84-2.13,2.89s-.09,2.4-.38,3.47-1,2.13-1.26,3.18-.47,2.22-.76,3.36-.47,2.22-.77,3.37-.38,2.21-.58,3.36-1,2.12-1.16,3.27-.38,2.31-.47,3.36-.2,2.31-.29,3.47-.2,2.31-.29,3.47-.1,2.31-.1,3.47.1,2.31.1,3.47v3.47a30.69,30.69,0,0,0,.58,3.37c.1,1-.48,2.31-.39,3.47s1,2.21,1.17,3.36-.58,2.4-.39,3.47.88,2.22,1.06,3.27.09,2.31.38,3.36a32.48,32.48,0,0,1,1.16,3.28c.2,1.16,0,2.3.3,3.47s.47,2.21.76,3.36.87,2.12,1.16,3.27.77,2.12,1.06,3.27.29,2.31.58,3.36.87,2.13,1.16,3.18.58,2.22.87,3.28.39,2.3.77,3.36,1.54,1.92,1.93,3,.76,2.12,1.25,3.18.87,2.12,1.25,3.18.68,2.21,1.06,3.27.76,2.12,1.25,3.18.58,2.22,1.06,3.27.87,2.13,1.34,3.18,1.35,1.83,1.84,2.89.38,2.31.87,3.36,1.16,2,1.64,3,1.25,1.93,1.73,3,1.34,1.93,1.83,2.89,1.06,2,1.55,3.08.87,2.12,1.43,3.07,1.17,2,1.64,3,1.44,1.73,2,2.8.58,2.3,1.16,3.27,1.35,1.83,2,2.8,1.55,1.72,2.22,2.59,1,2,1.73,3,1.05,2,1.73,3,1.63,1.63,2.31,2.5,1.63,1.64,2.4,2.51,1.43,1.73,2.21,2.6,1.06,2.12,1.84,3,1.54,1.63,2.31,2.51,1.93,1.25,2.8,2.12,1.34,1.84,2.22,2.6,1.63,1.54,2.5,2.31,1.73,1.54,2.6,2.21,2.31.77,3.19,1.44,1.72,1.44,2.69,2.13,1.73,1.54,2.8,2.21,1.92,1.35,3,2,2.22.77,3.27,1.35,2,1.16,3.08,1.63,2,1.16,3.18,1.64,1.92,1.43,3.07,1.92,2.4.29,3.57.68,2.12,1.16,3.27,1.43l3.47.87c1.16.29,2.22.88,3.37,1.06s2.4.29,3.56.47,2.4,0,3.56,0,2.4-.29,3.57-.29,2.4.48,3.56.29,2.4-.38,3.56-.67a4.16,4.16,0,0,0,2.22-2.22,5,5,0,0,0,.87-2.79,4.44,4.44,0,0,0-.87-2.69c-1.08-1.26-1.67-2.33-2.81-2.42Z" transform="translate(-65.01 -14.14)"/><path class="cls-1" d="M97.94,424.93c-.58-1-.76-2.22-1.34-3.18a30.5,30.5,0,0,1-2-2.89c-.47-1.06-1-2.13-1.44-3.18s-1-2.13-1.44-3.18-.58-2.22-1-3.27-1.06-2-1.44-3.07-1-2.13-1.35-3.18-1.54-1.84-1.92-3-.58-2.21-1-3.36-.29-2.31-.67-3.47-1.25-2-1.64-3.07-.76-2.22-1.16-3.27-.67-2.22-1-3.27-.68-2.22-1-3.27.1-2.4-.2-3.47-1-2.13-1.25-3.18-.67-2.13-1-3.28-.2-2.21-.48-3.36-.67-2.22-.87-3.27-.67-2.22-.87-3.27-.29-2.22-.48-3.36-.76-2.13-1-3.28.38-2.3.29-3.47-1-2.12-1.25-3.18S72.16,345,72,343.8s.1-2.31,0-3.36-.76-2.22-.87-3.27-.47-2.22-.67-3.27a1.84,1.84,0,0,0-1.84-1.84,1.31,1.31,0,0,0-.58.09c-1.25.2-2.69,1-2.8,2.4,0,1.17-.2,2.31-.2,3.57s.2,2.3.29,3.56.1,2.31.2,3.56,0,2.31.2,3.56S66.76,351,67,352.16s0,2.31.2,3.57.09,2.4.29,3.56.29,2.31.47,3.47.38,2.31.67,3.47,1.06,2.12,1.35,3.27.47,2.31.76,3.47.2,2.4.48,3.47,1,2.12,1.44,3.27.19,2.4.58,3.47,1.16,2.12,1.54,3.18.87,2.12,1.26,3.27,1,2.13,1.34,3.27.38,2.4.77,3.47.67,2.31,1,3.37,1.55,1.92,2,3,1.06,2.12,1.55,3.18.87,2.21,1.34,3.27a32.19,32.19,0,0,0,1.84,3c.58,1,.47,2.4,1,3.36s1.55,1.84,2.13,2.8.87,2.21,1.44,3.18,1.34,1.92,1.92,3,.77,2.22,1.35,3.27a2.76,2.76,0,0,0,3.47,1c1.07-1.27,1.35-2.72.67-3.77Z" transform="translate(-65.01 -14.14)"/><path class="cls-1" d="M394.45,435.52a21.69,21.69,0,0,0-3-2,21.26,21.26,0,0,0-3.37-1.16,24.46,24.46,0,0,0-3.47-.87,36,36,0,0,0-3.47-1.06c-1.16-.19-2.51.39-3.66.2s-2.31-1-3.47-1.16-2.51.2-3.65,0-2.4-.76-3.57-.87-2.51.2-3.65.09-2.4-.2-3.66-.2-2.41-.07-3.67-.07-2.4.87-3.65.87-2.22-.2-3.37-.09-2.31-.29-3.36-.2-2.22.76-3.28.87-2.31-.09-3.36.09-2.13.77-3.28,1l-3.27.59c-1.05.19-2.22.47-3.27.76s-2.22.38-3.27.67-2,1.06-3.08,1.35-2.22.47-3.27.87-2.31.2-3.37.58-1.92,1.34-3,1.73-2.31.2-3.36.67c-1.26.47-1.26,2.22-.77,3.27s1.64,2.22,2.89,1.73a30.71,30.71,0,0,1,3.18-1.44c1.17-.27,2.22-.58,3.37-.87s2.22-.58,3.36-.87,2.31-.2,3.47-.38,2.22-.58,3.37-.87,2.22-.48,3.36-.68,2.13-1.16,3.28-1.25,2.31-.09,3.47-.2,2.31.2,3.47.09,2.22-.76,3.37-.87,2.31-.2,3.47-.2,2.31-.09,3.47-.09h3.47c1.16,0,2.31.76,3.47.87s2.31-.29,3.48-.2,2.31,0,3.47.09,2.31.48,3.47.68,2.31.09,3.47.29,2.13.2,3.28.47,2,.67,3.07,1,2.22.2,3.27.48,1.93,1.25,3,1.44,2.21-.39,3.27-.3a16.89,16.89,0,0,0,3.18,0,3.52,3.52,0,0,0,2.89-1.54,2.87,2.87,0,0,0-.75-3.21Z" transform="translate(-65.01 -14.14)"/><path class="cls-1" d="M654.46,243.89c0-1.54-.87-3.07-.87-4.62s.29-3.07.29-4.52.58-3.07.48-4.62-.48-3.07-.68-4.52-.67-3-.87-4.53.09-3.18-.29-4.61-2.4-2.51-2.89-3.95-.38-3-.87-4.52a41.65,41.65,0,0,0-1.64-4.24c-.58-1.34-1.16-2.8-1.73-4.23s-.76-3-1.54-4.33a40.3,40.3,0,0,0-2.22-4c-.47-1.55-2.22-2.22-3.07-3.57s-.58-3.36-1.44-4.52-2.31-2.13-3.27-3.27-2.51-1.93-3.48-3-1-3.18-2.21-4.24-3.18-1.16-4.24-2.12-1.55-2.89-2.69-3.95-2.69-1.54-3.86-2.5-2.31-2-3.56-2.89-2.69-1.55-3.95-2.31-3-1-4.23-1.73-2.89-1-4.24-1.63-2.22-2.4-3.56-3.08-3-.76-4.44-1.34-2.6-1.64-3.94-2.31-2.41-2.12-3.86-2.69-2.89-1-4.33-1.44-2.89-1-4.23-1.63-3.19-.2-4.62-.67-2.89-1.06-4.33-1.55-3.08-.29-4.53-.76-2.69-1.35-4.14-1.84-3-.76-4.44-1.16-2.51-2.12-4-2.6-3.18-.09-4.61-.58-2.8-1.25-4.24-1.73-3.08-.29-4.53-.76-2.6-1.73-4-2.22-2.89-.87-4.32-1.34-3.19-.29-4.53-.77-2.89-.87-4.33-1.43-2.69-1.35-4.15-1.93-2.31-2.31-3.76-3-2.8-1.16-4.14-1.83-3.37,0-4.73-.68-2.22-2.4-3.56-3.07-3.28-.38-4.62-1.16-2-2.6-3.37-3.36-2.6-1.55-3.85-2.4-3.47-.29-4.73-1.17-1.92-2.59-3.27-3.47-2.4-1.92-3.66-2.79-3.07-1-4.32-1.84-2.41-1.92-3.66-2.8-2.51-1.72-3.76-2.69-2.51-1.72-3.76-2.59-2.13-2.22-3.37-3.18-2.4-1.93-3.56-2.89-2.22-2.13-3.37-3.08-3-1.16-4.14-2.12-1.93-2.51-3.08-3.47-1.73-2.69-2.89-3.65-2.8-1.44-3.94-2.4-2.89-1.26-4.15-2.22-2.13-2.31-3.27-3.27-1.64-2.89-2.8-3.85-2.69-1.55-3.86-2.51-2.12-2.22-3.36-3.18-3.07-1.06-4.24-1.93-2.89-1.25-4.14-2.12-1.73-2.89-3-3.76-2.9-1.16-4.15-2-2.13-2.22-3.47-3.07-2.69-1.55-3.95-2.31-2.8-1.35-4-2.13-2.12-2.3-3.47-3.07-2.51-1.73-3.85-2.51-3.37-.19-4.73-.87-2.69-1.43-4-2.12-2.31-2.31-3.76-3-3-.87-4.43-1.44-2.8-1.25-4.24-1.83-3-.49-4.59-1-2.69-1.83-4.14-2.3-3-.88-4.44-1.26-3.27.2-4.73-.2-3-.76-4.52-1.05-3.08-.38-4.62-.58-2.89-1.73-4.44-1.93-3.18,0-4.72-.09-3.18,1.25-4.73,1.25-3.07-1-4.62-1-3-.67-4.53-.58-3.07.47-4.61.67-3.08.2-4.62.48-3,.76-4.44,1.05-2.69,1.64-4.14,2-3.37-1-4.82-.58-2.31,2.6-3.76,3.07-3.37-.38-4.73.2-3,.76-4.33,1.34-2.13,2.69-3.47,3.37-3.27.29-4.62,1-2,2.6-3.37,3.36-3.07.68-4.43,1.44-2.89,1-4.15,1.93-2.12,2.3-3.36,3.18-2.89,1.16-4.15,2-1.72,2.8-2.89,3.66-3.27.76-4.43,1.72-1.35,3.08-2.51,4-2.51,1.73-3.66,2.8S235,53,234,54.05s-3,1.34-4,2.5-1.43,2.8-2.5,4-2.6,1.72-3.66,2.89-1,3.18-2,4.32-2.6,1.84-3.56,3-1.55,2.69-2.51,4-2.69,1.72-3.66,3-.67,3.27-1.63,4.52-1.93,2.4-2.8,3.66-1.84,2.4-2.69,3.65-2.7,1.83-3.57,3.18-.87,3.18-1.63,4.43-1.55,2.69-2.31,4-1.64,2.6-2.41,3.85-2.89,1.83-3.65,3.07-1.06,3-1.84,4.24-.87,3.07-1.72,4.32-1.64,2.6-2.41,3.85-2.5,2-3.27,3.37-1.73,2.5-2.6,3.85-.38,3.36-1.16,4.62-1.93,2.4-2.69,3.76-2.89,1.83-3.66,3.18-.09,3.56-.87,4.81-2,2.4-2.8,3.65-2.22,2.31-3,3.57-1,3-1.73,4.32-2,2.4-2.8,3.76-1,3-1.73,4.33-.87,3-1.54,4.33-2.13,2.3-2.89,3.65-1,3-1.64,4.32-2.22,2.31-2.89,3.66-1.93,2.51-2.6,3.85-1.25,2.89-1.93,4.23-.76,3.08-1.34,4.44-1.35,2.8-2,4.14-1.06,2.89-1.64,4.33-1.73,2.6-2.4,4-.38,3.18-1,4.62-1.93,2.51-2.51,3.94-.29,3.18-.87,4.62-1,2.89-1.55,4.33-1.44,2.69-2,4.14-1.34,2.8-1.83,4.23-.2,3.18-.68,4.62-1.63,2.69-2,4.23-.87,3-1.25,4.44-1,2.89-1.44,4.43.29,3.27-.09,4.72-.67,3-1,4.53-1.64,2.79-1.93,4.32-.58,3-.87,4.53-.38,3.07-.58,4.61-.2,3.08-.38,4.62,0,3.07-.2,4.62-1,3-1.06,4.52.2,3.08.09,4.62.2,3.07.09,4.62-.67,3.07-.67,4.61-1,3.07-1,4.62,0,3.07.09,4.62.87,3.07,1,4.61-.29,3.18-.2,4.62,1.93,2.89,2.13,4.43-.2,3.18,0,4.62,1,2.89,1.34,4.43-.29,3.18,0,4.72.77,3.08,1.17,4.53,1.63,2.8,2,4.33.38,3.17.87,4.61.38,3.18.87,4.73.87,3.07,1.44,4.52,1.73,2.69,2.4,4.14,2.31,2.31,3.07,3.76,1.35,2.8,2,4.24,1.84,2.5,2.6,3.85,1.16,3,2,4.23,1,3.18,1.84,4.44,2,2.4,2.89,3.65,2.21,2.22,3.27,3.47,1.73,2.69,2.69,3.85,2.13,2.31,3.18,3.47,2.31,2.13,3.37,3.27,2.51,1.84,3.65,2.89,1.84,2.69,3.08,3.66l3.76,2.89c1.25,1,3.07,1,4.33,1.92s2,2.69,3.36,3.47,3.28.58,4.62,1.35,2.8,1.43,4.15,2.12,2.89,1.16,4.33,1.73,2.6,1.54,3.94,2.12,2.6,1.84,3.95,2.31,2.89,1,4.33,1.35,2.89,1.05,4.33,1.34,3.07.2,4.52.48a38.11,38.11,0,0,0,4.44.67c1.44.09,3,.38,4.53.47s3-1.16,4.43-1.25,3.08,1.16,4.53,1.05,3-.19,4.53-.38,2.69-1.83,4.23-2,3.18.77,4.62.48,2.6-1.93,4.15-2.22,3.36,1,4.91.58,2.69-1.83,4.23-2.21,3.28.2,4.73-.2,2.8-1.55,4.24-1.93,2.69-1.63,4.23-2.12,3.27.09,4.73-.29,2.89-1.26,4.33-1.64,3.18,0,4.72-.38,2.6-2.13,4.15-2.51,3.07-.47,4.52-.87,3-1,4.44-1.35,3-1,4.44-1.34,3.18.09,4.72-.2,3.08-.38,4.62-.67,3.08-.29,4.62-.58,2.89-1.06,4.44-1.44a40,40,0,0,1,4.52-.87c1.55-.2,3-.77,4.53-1.06s3-1.16,4.44-1.34,3.07,0,4.61-.2,3-1,4.53-1.16,3.08,0,4.62-.09,3.08-.87,4.62-1,3.27,1.44,4.82,1.35,3.07-.09,4.72-.09,3.08-.2,4.73-.2,3.07-.2,4.73-.2,3.07.29,4.72.29,3.18-.58,4.73-.58,3.18-.58,4.72-.47,3.08,1.25,4.62,1.34,3.19-1,4.82-.76,3.08,1.05,4.62,1.25,3.07.47,4.62.67,3,1,4.53,1.26,3.07.38,4.62.67,3.07.47,4.62.76,3.27-.47,4.81-.09,3,1.06,4.53,1.35,3.27-.2,4.82.2,2.69,2.3,4.14,2.69,3.08.47,4.53.87,3.37-.58,4.82-.2,3,.87,4.43,1.25,3,.67,4.44,1.06,2.89,1.16,4.33,1.54,3,.76,4.43,1.16,2.89,1.26,4.33,1.55,3.18-.29,4.73,0,3,.47,4.53.76,2.89,1.25,4.43,1.54,3.07.3,4.62.48,3,.76,4.53.87,3.07-.58,4.62-.38,3,1.54,4.52,1.54,3.08-.38,4.62-.29,3.08-.09,4.62-.09,3.08-.47,4.62-.58,3-.29,4.53-.48,3-.58,4.52-.87,3.28,1,4.82.68,2.69-1.84,4.24-2.22,3-.58,4.44-1,2.6-1.64,4-2.13,3.37.2,4.73-.38,2.89-1.06,4.24-1.73,3-1,4.32-1.63,2.6-1.64,4-2.4,2-2.6,3.27-3.47,2.6-1.64,3.86-2.4,2.4-1.84,3.65-2.69,2.7-1.44,4-2.4,2.51-1.73,3.65-2.69,2-2.22,3.19-3.28,3.27-1,4.43-1.92,1.93-2.4,3-3.47,2-2.22,3.08-3.36,2.51-1.84,3.56-2.89.87-3.28,1.93-4.44,2.22-2.12,3.18-3.27,1.93-2.4,2.89-3.56,2.13-2.13,3.08-3.36,1.83-2.4,2.69-3.66,1.73-2.5,2.69-3.65,1.93-2.31,2.89-3.56,1.93-2.4,2.8-3.66,1.44-2.69,2.31-3.94,2.31-2.12,3.18-3.36,1.06-3,1.93-4.24,1.54-2.6,2.31-3.94,2.31-2.13,3.07-3.47,2-2.31,2.8-3.65,1.73-2.51,2.51-3.86,0-3.47.76-4.81,2.69-2,3.37-3.36,1-2.89,1.73-4.33,2-2.4,2.69-3.76.76-3,1.44-4.43,1.63-2.6,2.21-4,1.17-2.8,1.73-4.23.09-3.28.67-4.62,1.84-2.6,2.31-4,.59-3,1.06-4.43,1.25-2.8,1.73-4.23,1.63-2.69,2-4.15-.2-3.18.2-4.72,1.43-2.8,1.83-4.23.58-3,.87-4.53-.47-3.18-.29-4.72,1.26-2.89,1.44-4.44.38-3.07.58-4.52a30.62,30.62,0,0,0,.12-4.54ZM336.77,69c-1.16.2-2.21,1-3.27.87s-2.13-1-3.18-1.16-2.22-.38-3.27-.58l-3.19-.58c-1.05-.38-2.12-.67-3.18-1-1.16-.09-2.4.09-3.47,0s-2.22.09-3.36.09-2.31.58-3.37.67-2.22-.09-3.36.09-2.13.77-3.28,1.06-2.31.2-3.36.58a28,28,0,0,0-3.18,1.25c-1,.48-2,.87-3.08,1.35s-1.63,1.72-2.6,2.31-2.12.76-3.07,1.43-2.13,1.06-3,1.73-1.64,1.54-2.51,2.31a29.61,29.61,0,0,0-2.13,2.69c-.76.87-1.83,1.34-2.6,2.22l-.09.09a2,2,0,0,1-2.69.09c-.87-.67-1.73-2-1.06-3.07s1.55-1.64,2.22-2.6,1.44-1.84,2.13-2.69,1.83-1.26,2.6-2.13,1.43-1.83,2.21-2.6a31.5,31.5,0,0,1,2.7-2,25.33,25.33,0,0,1,2.6-2.22c1-.58,2.21-.67,3.18-1.25s1.63-1.73,2.6-2.31,2.22-.58,3.27-1,1.93-1.25,3-1.63,2.31-.48,3.28-.77,2.12-.47,3.18-.76a18.41,18.41,0,0,1,3.27-.47c1.06-.1,2.13,0,3.27-.1s2.22-1,3.28-1,2.22.67,3.27.67,2.4,0,3.76.09c1.17.1,2.51-.47,3.77-.29a25.43,25.43,0,0,1,3.65.87,15.9,15.9,0,0,1,3.37,1.64A9.26,9.26,0,0,1,338.15,63a7.9,7.9,0,0,1,1.35,3.85c-.32,1.25-1.29,1.83-2.73,2.12ZM371,47.17a3,3,0,0,1-3.47.87c-1.06-.38-1.93-1.16-3-1.64s-2.4-.2-3.47-.58-2.12-.87-3.18-1.16-2-1.25-3.07-1.54-2.22-.29-3.37-.58-2.13-.88-3.27-1.06-2.31-.47-3.37-.67-2.21-.09-3.36-.29-2.22-.29-3.37-.38-2.31-.68-3.36-.77-2.31-.29-3.37-.29-2.31.09-3.36,0-2.22-.29-3.37-.29-2.31.67-3.36.77-2.22-.2-3.37-.1-2.21.39-3.36.58-2.31-.29-3.47-.09-2.31.09-3.37.29-2.12.68-3.27,1-2.13.76-3.27,1-2.22.77-3.28,1.06-2.21.38-3.27.76-2.22.58-3.27.87-2.31.38-3.37.77a30.9,30.9,0,0,0-3.07,1.43c-1,.48-2.13.87-3.08,1.35s-1.83,1.43-2.8,1.92-2,.77-3.07,1.35-1.84,1.44-2.8,2-2,1-3,1.54-1.73,1.64-2.6,2.22-2.13.87-3,1.54-1.55,1.64-2.41,2.4-2.21.87-3.07,1.64-1.25,2-2.13,2.79-1.83,1.44-2.6,2.22-1.72,1.73-2.5,2.6-1.55,1.83-2.41,2.69-2.21,1.35-3,2.22-1.16,2.12-1.92,3.07-1.84,1.73-2.51,2.69-.68,2.12-1.26,3-1.44,1.64-1.92,2.51-1.17,1.72-1.73,2.6-1,1.83-1.55,2.79-1.44,1.64-2,2.51-1.05,1.83-1.63,2.69a3.31,3.31,0,0,1-5.4.47c-.68-.67-.58-1.54-.2-2.79.29-1.06,0-2.4.38-3.47s1.35-1.93,1.84-3,1.25-1.93,1.72-3a29.62,29.62,0,0,1,1.64-3c.58-1,1.06-2.12,1.64-3s1.34-1.72,2-2.69a29.59,29.59,0,0,1,2-2.79c.76-.88,1.43-1.84,2.21-2.6s1.64-1.55,2.4-2.4,1.73-1.55,2.51-2.31,1.35-1.93,2.13-2.69,1.64-1.64,2.51-2.4,2-1.16,2.89-1.84,1.34-1.72,2.22-2.5a27.74,27.74,0,0,1,2.8-1.93c1-.67,1.63-1.63,2.5-2.31s1.84-1.25,2.7-1.92,1.92-1,2.89-1.64,1.92-1.16,2.89-1.73,1.73-1.34,2.8-1.92,2.21-.67,3.18-1.26,2-1.05,3-1.54,2-1,3-1.44,2.13-.58,3.18-1,2.13-.67,3.28-1,2-1.44,3.07-1.73,2.13-.77,3.27-1.06,2.31-.58,3.37-.87,2.31,0,3.47-.2,2.13-1.05,3.27-1.25,2.22-.58,3.37-.67,2.4.47,3.56.38,2.31-.58,3.37-.67,2.22-.58,3.36-.58,2.31.58,3.47.58,2.31.2,3.48.2,2.31-.59,3.47-.59,2.31-.09,3.47,0,2.22,1,3.36,1.06,2.31-.29,3.48-.09,2.21.67,3.36.87,2.31-.09,3.47.09a32.82,32.82,0,0,1,3.37.77c1.16.29,2.31.47,3.36.76s2.22.67,3.28,1,2.12.88,3.18,1.26,2.12,1,3.18,1.34,2.4.09,3.47.58,2,1.26,3.08,1.64,2.12.76,3.18,1.25a2.07,2.07,0,0,1,.58,3.2ZM574.33,351.4a20.35,20.35,0,0,1-1.43,3.27,25.31,25.31,0,0,1-1.84,3c-.67,1-1.16,2-1.93,3s-1.83,1.64-2.6,2.51-1.54,1.93-2.4,2.89-1.73,1.83-2.6,2.8-1.93,1.63-2.89,2.5-1.93,1.55-2.89,2.4-1.54,2.13-2.4,2.89a31.22,31.22,0,0,1-2.8,2.31c-1,.67-2,1.44-3,2.12s-2.31.88-3.37,1.55-1.73,1.92-2.8,2.51-1.92,1.34-3.07,1.92-2.51.38-3.66,1-2,1.43-3.18,1.92-1.92,1.25-3,1.73-2.4.29-3.47.67-2.22.58-3.27,1-1.93,1.26-3.08,1.64-2.12.87-3.27,1.16-2.4-.2-3.57,0-2.12,1-3.27,1.16-2.31.1-3.47.2-2.22.87-3.37,1-2.31.09-3.47.19-2.31.29-3.47.29-2.31-.09-3.47-.09-2.4-.29-3.47-.29-2.22-.29-3.37-.38-2.31.58-3.47.38-2.22-.58-3.37-.76-2.3-.2-3.47-.38-1.34-1.64-1.25-2.69.67-2.31,1.93-2.13c1.05.09,2.21.38,3.36.47s2.31,0,3.47,0,2.31.77,3.47.77,2.31.09,3.48,0,2.31-.29,3.47-.38,2.31.2,3.47.09,2.22-.77,3.37-.87,2.21-.48,3.36-.68,2.22-.47,3.37-.67,2.21-.38,3.36-.67,2.4-.09,3.47-.38,2-1.26,3.08-1.64,2.31-.09,3.47-.47,2.12-1.06,3.18-1.44a28,28,0,0,0,3.07-1.44c1-.47,2.22-.58,3.28-1.05s1.92-1.16,3-1.73,2-1.16,3-1.73,1.73-1.54,2.69-2.12,2.13-.87,3.08-1.54,1.83-1.55,2.69-2.22,2.13-1.06,3-1.73,1.84-1.34,2.69-2.12,1.84-1.44,2.7-2.22,1-2,1.83-2.8,1.84-1.16,2.6-2,1.73-1.43,2.51-2.21a27.31,27.31,0,0,0,2-2.6c.67-.87,1-2.13,1.64-3.07s1.54-1.73,2.21-2.69,1.35-1.93,2-2.8,1.16-2.13,2-2.89c1.16-.87,2.69-1,4.53.2a3.21,3.21,0,0,1,1.57,3.5Z" transform="translate(-65.01 -14.14)"/><path class="cls-2" d="M727.89,578.56H336.39V506.43A128.16,128.16,0,0,1,464.55,378.28H599.72A128.16,128.16,0,0,1,727.88,506.43h0v72.13Z" transform="translate(-65.01 -14.14)"/><path class="cls-3" d="M727.89,581H336.39a2.43,2.43,0,0,1-2.43-2.43V506.43c0-72,58.58-130.57,130.59-130.57H599.72c72,0,130.59,58.57,130.59,130.57v72.13A2.42,2.42,0,0,1,727.89,581Zm-389.08-4.86H725.46v-69.7A125.87,125.87,0,0,0,599.73,380.71H464.56A125.87,125.87,0,0,0,338.82,506.43v69.7Z" transform="translate(-65.01 -14.14)"/><path class="cls-2" d="M602.5,490.17h80.6v21.75H602.5Z" transform="translate(-65.01 -14.14)"/><path class="cls-3" d="M683.11,514.34H602.5a2.42,2.42,0,0,1-2.43-2.42V490.17a2.43,2.43,0,0,1,2.43-2.43h80.61a2.42,2.42,0,0,1,2.42,2.43v21.75A2.42,2.42,0,0,1,683.11,514.34Zm-78.18-4.85h75.75v-16.9H604.92Z" transform="translate(-65.01 -14.14)"/><path class="cls-2" d="M657.42,578.71l9.29-22.39" transform="translate(-65.01 -14.14)"/><path class="cls-3" d="M657.41,581.14a2.42,2.42,0,0,1-2.42-2.43,2.52,2.52,0,0,1,.18-.93l9.29-22.39a2.43,2.43,0,1,1,4.48,1.86l-9.28,22.39a2.39,2.39,0,0,1-2.25,1.5Z" transform="translate(-65.01 -14.14)"/><path class="cls-2" d="M352.68,393.09l-91.19,3.42-24-52,6.82-26,107.75-2,11.78,40Z" transform="translate(-65.01 -14.14)"/><path class="cls-2" d="M323.72,302.41C298.63,297,275.9,310.1,253.8,306c-23.07-4.35-38.6-8.73-48.38-6a11.51,11.51,0,0,0-8.17,12.79c2.56,17.84,16.66,11.67,48.43,28,1.88,1-1.58,2.46,5.83.29" transform="translate(-65.01 -14.14)"/><path class="cls-3" d="M246.85,344.59a2.87,2.87,0,0,1-1.63-.47,2.65,2.65,0,0,1-1.1-1.43,161.47,161.47,0,0,0-28.14-11c-12-3.72-19.32-6-21.12-18.52a13.94,13.94,0,0,1,9.92-15.48c8.29-2.29,19.91.06,36,3.31,4.26.86,8.68,1.75,13.49,2.66,10.05,1.86,20.33,0,31.2-2,12.35-2.23,25.13-4.53,38.78-1.61a2.42,2.42,0,0,1-1,4.74c-12.71-2.72-25-.51-36.9,1.64-11.33,2.05-22,4-33,2-4.85-.91-9.28-1.81-13.56-2.67-15.42-3.13-26.56-5.38-33.74-3.39a9.08,9.08,0,0,0-6.41,10.1c1.37,9.52,6.16,11,17.76,14.57a168.48,168.48,0,0,1,29.39,11.6,4,4,0,0,1,1.18.9c.6-.15,1.52-.4,2.86-.79a2.42,2.42,0,0,1,1.37,4.65,22.21,22.21,0,0,1-5.36,1.24Z" transform="translate(-65.01 -14.14)"/><path class="cls-2" d="M260.26,395.24l-12.32,60.69H363.73l2.93-96.5c6.18-37.95-28.78-66.74-66.72-55-3.14.81-11,4.83-17.88,12.43" transform="translate(-65.01 -14.14)"/><path class="cls-3" d="M363.73,458.35H247.94a2.42,2.42,0,0,1-2.42-2.43,2.61,2.61,0,0,1,0-.48l12.31-60.7a2.43,2.43,0,0,1,4.76,1L250.91,453.5H361.38l2.85-94.15a1.75,1.75,0,0,1,0-.32c2.72-16.7-2.75-32.4-15-43.07-12.89-11.19-31-14.63-48.59-9.18l-.12,0c-2.57.66-10,4.39-16.69,11.73a2.42,2.42,0,0,1-3.59-3.26c7.14-7.87,15.25-12.15,19-13.14,19.14-5.93,39-2.13,53.16,10.17,13.53,11.76,19.59,29,16.65,47.35L366.16,456a2.42,2.42,0,0,1-2.43,2.35Z" transform="translate(-65.01 -14.14)"/><path class="cls-2" d="M247.14,350.08c-29.22-3.34-95.26-34.24-113.43-28.92-8.75,2.57-14.93,13.61-9.33,20.81,11.84,15.22,60.09,33.11,120.14,49.95,3.13.88,17.34,4.69,20.54,5.56" transform="translate(-65.01 -14.14)"/><path class="cls-3" d="M265.06,399.91a2.3,2.3,0,0,1-.64-.09l-7-1.88c-5.16-1.39-11.59-3.13-13.58-3.68-69.47-19.49-110.32-36.58-121.39-50.8a13.1,13.1,0,0,1-1.9-12.42A19.13,19.13,0,0,1,133,318.84c11.1-3.26,36.57,5.33,63.53,14.43,19,6.38,38.56,13,50.87,14.4a2.43,2.43,0,0,1-.53,4.83h0c-12.82-1.46-32.66-8.16-51.86-14.63-25.06-8.45-51-17.19-60.62-14.37a14.36,14.36,0,0,0-9.21,9.05,8.34,8.34,0,0,0,1.11,7.94c10.28,13.21,51.39,30.18,118.88,49.11,2,.55,8.38,2.28,13.54,3.67l7,1.89a2.42,2.42,0,0,1-.64,4.75Z" transform="translate(-65.01 -14.14)"/><path class="cls-2" d="M257.22,342c-27.87-3-88.29-36.49-98.78-33.72a14.49,14.49,0,0,0-10,17.86,15.31,15.31,0,0,0,1.11,2.79c9.55,17.91,55.05,40.25,115.52,68.58" transform="translate(-65.01 -14.14)"/><path class="cls-3" d="M265.05,399.91a2.41,2.41,0,0,1-1-.23c-62-29.06-106.74-51.07-116.63-69.63a16.72,16.72,0,0,1-.51-14.65,16.52,16.52,0,0,1,10.94-9.49c5.5-1.46,18.65,3.91,41.42,13.54,20.6,8.71,43.94,18.59,58.23,20.1a2.42,2.42,0,1,1-.51,4.82c-15-1.59-38.7-11.6-59.61-20.45-16-6.76-34.12-14.43-38.3-13.32a11.68,11.68,0,0,0-7.73,6.74,11.9,11.9,0,0,0,.34,10.43c9.18,17.21,55.2,39.79,114.42,67.52a2.42,2.42,0,0,1-1,4.62Z" transform="translate(-65.01 -14.14)"/><path class="cls-2" d="M220.89,432.3h169.9V578.57H220.89Z" transform="translate(-65.01 -14.14)"/><path class="cls-3" d="M390.79,581H220.89a2.42,2.42,0,0,1-2.42-2.43V432.3a2.42,2.42,0,0,1,2.42-2.43h169.9a2.43,2.43,0,0,1,2.43,2.43V578.56A2.43,2.43,0,0,1,390.79,581Zm-167.47-4.86H388.37V434.72h-165Z" transform="translate(-65.01 -14.14)"/><path class="cls-1" d="M526,578.57,483.69,378.28H590.55L551.49,579Z" transform="translate(-65.01 -14.14)"/><path class="cls-2" d="M483.69,378.28l-64.4,68.93,57.8,38.37-15.66,26.34L526,578.56Z" transform="translate(-65.01 -14.14)"/><path class="cls-3" d="M526,581a2.45,2.45,0,0,1-1.74-.74l-64.52-66.64a2.42,2.42,0,0,1-.34-2.93l14.47-24.35L418,449.23a2.44,2.44,0,0,1-.68-3.37,3.76,3.76,0,0,1,.25-.31l64.4-68.92a2.42,2.42,0,0,1,3.43-.12,2.53,2.53,0,0,1,.72,1.27l42.26,200.29a2.42,2.42,0,0,1-1.87,2.87,2.94,2.94,0,0,1-.51,0Zm-61.49-69.43,57.38,59.27L482.28,383.34,423,446.77l55.41,36.79a2.42,2.42,0,0,1,.74,3.26Z" transform="translate(-65.01 -14.14)"/><path class="cls-2" d="M590.55,378.28,655,447.21l-57.79,38.37,15.65,26.34-62.76,65.84Z" transform="translate(-65.01 -14.14)"/><path class="cls-3" d="M550.05,580.18a2.42,2.42,0,0,1-2.43-2.42,2.81,2.81,0,0,1,0-.49L588.18,377.8a2.42,2.42,0,0,1,2.86-1.89,2.35,2.35,0,0,1,1.29.72l64.4,68.92a2.42,2.42,0,0,1-.11,3.43,2.72,2.72,0,0,1-.32.25l-55.87,37.1,14.48,24.35a2.41,2.41,0,0,1-.33,2.91l-62.77,65.84a2.4,2.4,0,0,1-1.76.75ZM592,383.38,554.1,570l55.69-58.41-14.72-24.75a2.42,2.42,0,0,1,.75-3.26l55.41-36.79Z" transform="translate(-65.01 -14.14)"/><circle class="cls-2" cx="545.54" cy="239.26" r="37.64"/><path class="cls-3" d="M610.55,293.47a40.07,40.07,0,1,1,40.07-40.07h0A40.12,40.12,0,0,1,610.55,293.47Zm0-75.27a35.22,35.22,0,1,0,35.22,35.21h0A35.25,35.25,0,0,0,610.55,218.2Z" transform="translate(-65.01 -14.14)"/><path class="cls-2" d="M497.15,229.68l-1.71-13.61a23.62,23.62,0,0,1,20.35-26.48,23.91,23.91,0,0,1,3.05-.2l87.72.42a75.51,75.51,0,0,1,.7,38.8,74.78,74.78,0,0,1-19,125L587.93,382c-.37,28.33-23.32,51.07-51.41,50.89s-50.83-23.28-50.77-51.67l.19-88v-.33" transform="translate(-65.01 -14.14)"/><path class="cls-3" d="M536.84,435.26h-.33c-29.39-.18-53.25-24.44-53.19-54.1l.19-88v-.27a2.43,2.43,0,0,1,4.85-.11v.33l-.2,88.08c-.05,27,21.64,49.07,48.37,49.23h.3c26.52,0,48.31-21.69,48.66-48.5l.37-28.35a2.41,2.41,0,0,1,1.46-2.2,72.35,72.35,0,0,0,18.34-120.92,2.42,2.42,0,0,1-.76-2.41,73,73,0,0,0-.21-35.8l-85.87-.42h-.1a21,21,0,0,0-15.68,7.09,21.37,21.37,0,0,0-5.2,16.86l1.71,13.62a2.43,2.43,0,0,1-4.81.64V230L493,216.36a26.26,26.26,0,0,1,6.39-20.69A25.79,25.79,0,0,1,518.73,187h.13l87.71.42a2.43,2.43,0,0,1,2.32,1.76,77.77,77.77,0,0,1,1.07,38.6A77.23,77.23,0,0,1,590.7,355.17l-.34,26.8c-.39,29.45-24.36,53.29-53.52,53.29Z" transform="translate(-65.01 -14.14)"/><path class="cls-3" d="M572.93,264.46a2.43,2.43,0,0,1-.67-4.77l18.17-5.28-20-34.72a2.42,2.42,0,0,1,4.2-2.42l21.58,37.39a2.42,2.42,0,0,1-.89,3.31,2.08,2.08,0,0,1-.53.23l-21.13,6.14a2.09,2.09,0,0,1-.69.12Z" transform="translate(-65.01 -14.14)"/><path class="cls-3" d="M578.22,294.89a26.56,26.56,0,0,1-19.57-8.7l-3.65-4a2.42,2.42,0,0,1,.17-3.43,2.36,2.36,0,0,1,1.62-.62H599a2.42,2.42,0,0,1,2.42,2.42,2.38,2.38,0,0,1-.33,1.22,26.61,26.61,0,0,1-22.9,13.15Zm-16-11.94a21.63,21.63,0,0,0,30.57,1.44c.5-.45,1-.93,1.44-1.44Z" transform="translate(-65.01 -14.14)"/><circle class="cls-3" cx="539.6" cy="223.35" r="7.78" transform="translate(250.11 748.35) rotate(-89.88)"/><circle class="cls-3" cx="534.01" cy="209.21" r="7.78"/><path class="cls-3" d="M559.3,362.61a76.66,76.66,0,0,1-44.51-14.15,2.43,2.43,0,0,1,2.82-4,72,72,0,0,0,69.3,7.73,2.42,2.42,0,1,1,2,4.43l-.08,0a75.79,75.79,0,0,1-29.49,5.91Z" transform="translate(-65.01 -14.14)"/><path class="cls-3" d="M455.33,271.81a2.42,2.42,0,0,1-.19-4.84l27-2.23-27.78-17.88a2.43,2.43,0,0,1,2.57-4.12l.05,0,33.8,21.75a2.42,2.42,0,0,1-1.12,4.46l-34.15,2.83Z" transform="translate(-65.01 -14.14)"/><path class="cls-2" d="M461.43,218.83V199.76a68.4,68.4,0,0,1,68.41-68.4h23.72a45.82,45.82,0,1,1,70.93,51.29,30.25,30.25,0,0,1-21.9,9.36H514.16a17.39,17.39,0,0,0-17.4,17.4h0v22.43Z" transform="translate(-65.01 -14.14)"/><path class="cls-3" d="M496.77,234.28a2.4,2.4,0,0,1-.84-.15l-35.34-13a2.41,2.41,0,0,1-1.58-2.28V199.76a70.92,70.92,0,0,1,70.83-70.83h22a48.25,48.25,0,1,1,74.25,55.54,32.44,32.44,0,0,1-23.51,10H514.16a15,15,0,0,0-15,15v22.43a2.42,2.42,0,0,1-2.41,2.43Zm-32.91-17.14,30.48,11.23v-19a19.86,19.86,0,0,1,19.83-19.83h88.42A27.64,27.64,0,0,0,622.73,181l.29-.26a43.39,43.39,0,1,0-67.17-48.58,2.42,2.42,0,0,1-2.29,1.65H529.84a66.06,66.06,0,0,0-66,66Z" transform="translate(-65.01 -14.14)"/><path class="cls-2" d="M513,238.29A41.49,41.49,0,1,0,489.64,297" transform="translate(-65.01 -14.14)"/><path class="cls-3" d="M476.36,301.57a43.91,43.91,0,1,1,38.81-64.41,2.43,2.43,0,1,1-4.19,2.46c0-.06-.07-.12-.1-.19a39.06,39.06,0,1,0-22,55.25,2.43,2.43,0,0,1,1.56,4.6A44.54,44.54,0,0,1,476.36,301.57Z" transform="translate(-65.01 -14.14)"/><path class="cls-3" d="M462.1,272.34a2.43,2.43,0,0,1-2.44-2.42,2.46,2.46,0,0,1,1.39-2.2l24.41-11.6-24.25-6.93a2.42,2.42,0,0,1,1.29-4.67h0L493,253.22a2.43,2.43,0,0,1,.37,4.53l-30.2,14.35a2.47,2.47,0,0,1-1,.24Z" transform="translate(-65.01 -14.14)"/><path class="cls-3" d="M727.89,581H393.2a2.43,2.43,0,1,1,0-4.86H727.89a2.43,2.43,0,1,1,0,4.86Z" transform="translate(-65.01 -14.14)"/></svg>